# This file uses meters as units for non-parametric coordinates.

mtllib Wall.mtl
g default
v -0.000029 0.000000 -0.000015
v 299.999971 0.000000 -0.000015
v -0.000029 599.999977 -0.000015
v 299.999971 599.999977 -0.000015
v -0.000029 599.999977 -30.000015
v 299.999971 599.999977 -30.000015
v -0.000029 0.000000 -30.000015
v 299.999971 0.000000 -30.000015
vt 0.912128 0.000000
vt 0.955407 0.000000
vt 0.955407 0.865585
vt 0.912128 0.865585
vt 0.867535 0.000000
vt 0.910814 0.000000
vt 0.910814 0.865585
vt 0.867535 0.865585
vt 0.956721 0.865585
vt 0.956721 0.432793
vt 1.000000 0.432793
vt 1.000000 0.865585
vt 0.956721 0.432793
vt 0.956721 0.000000
vt 1.000000 0.000000
vt 1.000000 0.432793
vt 0.433767 0.000000
vt 0.866560 0.000000
vt 0.866560 0.865584
vt 0.433767 0.865584
vt 0.000000 0.000000
vt 0.432792 0.000000
vt 0.432792 0.865584
vt 0.000000 0.865584
vn 0.000000 0.000000 1.000000
vn 0.000000 0.000000 1.000000
vn 0.000000 0.000000 1.000000
vn 0.000000 0.000000 1.000000
vn 0.000000 1.000000 0.000000
vn 0.000000 1.000000 0.000000
vn 0.000000 1.000000 0.000000
vn 0.000000 1.000000 0.000000
vn 0.000000 0.000000 -1.000000
vn 0.000000 0.000000 -1.000000
vn 0.000000 0.000000 -1.000000
vn 0.000000 0.000000 -1.000000
vn 0.000000 -1.000000 0.000000
vn 0.000000 -1.000000 0.000000
vn 0.000000 -1.000000 0.000000
vn 0.000000 -1.000000 0.000000
vn 1.000000 0.000000 0.000000
vn 1.000000 0.000000 0.000000
vn 1.000000 0.000000 0.000000
vn 1.000000 0.000000 0.000000
vn -1.000000 0.000000 0.000000
vn -1.000000 0.000000 0.000000
vn -1.000000 0.000000 0.000000
vn -1.000000 0.000000 0.000000
s off
g BasicWall1
usemtl initialShadingGroup
f 3/20/1 1/17/2 2/18/3 4/19/4
f 5/12/5 3/9/6 4/10/7 6/11/8
f 7/24/9 5/21/10 6/22/11 8/23/12
f 1/16/13 7/13/14 8/14/15 2/15/16
f 4/4/17 2/1/18 8/2/19 6/3/20
f 5/8/21 7/5/22 1/6/23 3/7/24
