# This file uses meters as units for non-parametric coordinates.

mtllib Chip_Base.mtl
g default
v 25.557377 58.397713 7.842995
v 28.631720 58.397713 7.842995
v 25.557377 83.744759 7.842995
v 28.631720 83.744759 7.842995
v 25.557377 83.744759 -7.842995
v 28.631720 83.744759 -7.842995
v 25.557377 58.397713 -7.842995
v 28.631720 58.397713 -7.842995
v 25.557377 61.124348 7.842995
v 28.631720 61.124348 7.842995
v 28.631720 61.124340 -7.842995
v 25.557377 61.124340 -7.842995
v -1.764259 58.397713 -7.842995
v -1.764259 58.397713 7.842995
v -1.764259 61.124348 7.842995
v -1.764259 61.124340 -7.842995
v -50.000000 4.244576 5.395508
v 50.000000 4.244576 5.395508
v 50.000000 104.244576 5.395508
v 50.000000 104.244576 -5.597092
v -50.000000 4.244576 -5.597092
v 50.000000 4.244576 -5.597092
v -50.000000 54.426571 -5.597092
v -50.000000 54.426579 5.395508
v 8.438499 104.244576 5.395508
v 8.438499 104.244576 -5.597092
v -21.729000 4.244576 5.395508
v 23.915136 4.244576 5.395508
v -21.729000 4.244576 -5.597092
v 23.915136 4.244576 -5.597092
v 23.915071 48.937679 -5.597092
v -21.728989 48.937679 -5.597092
v 23.915136 48.937675 5.395508
v -21.729012 48.937672 5.395508
v 19.826817 63.161659 7.842995
v 22.901159 63.161659 7.842995
v 19.826817 83.923805 7.842995
v 22.901159 83.923805 7.842995
v 19.826817 83.923805 -7.842995
v 22.901159 83.923805 -7.842995
v 19.826817 63.161659 -7.842995
v 22.901159 63.161659 -7.842995
v 19.826817 65.888290 7.842995
v 22.901159 65.888290 7.842995
v 22.901159 65.888283 -7.842995
v 19.826817 65.888283 -7.842995
v -1.672279 63.161659 -7.842995
v -1.672279 63.161659 7.842995
v -1.672279 65.888290 7.842995
v -1.672279 65.888283 -7.842995
v 17.152988 83.381065 8.508514
v 44.809761 83.381065 8.508514
v 17.152988 99.844444 8.508514
v 44.809761 99.844444 8.508514
v 17.152988 99.844444 -8.508514
v 44.809761 99.844444 -8.508514
v 17.152988 83.381065 -8.508514
v 44.809761 83.381065 -8.508514
v -28.278629 52.898472 8.508514
v -0.621856 52.898472 8.508514
v -28.278629 69.361847 8.508514
v -0.621856 69.361847 8.508514
v -28.278629 69.361847 -8.508514
v -0.621856 69.361847 -8.508514
v -28.278629 52.898472 -8.508514
v -0.621856 52.898472 -8.508514
vt 0.011841 0.021282
vt 0.069387 0.021282
vt 0.069387 0.104268
vt 0.011841 0.104268
vt 0.011841 0.011279
vt 0.069387 0.011279
vt 0.000000 0.366865
vt 0.057546 0.366865
vt 0.057546 0.449852
vt 0.000000 0.449852
vt 0.000000 0.169059
vt 0.000000 0.111512
vt 0.010003 0.111512
vt 0.010003 0.169059
vt 0.857330 0.366865
vt 0.817002 0.366865
vt 0.817002 0.000000
vt 0.857330 0.000000
vt 0.809960 0.000000
vt 0.813412 0.184068
vt 0.773091 0.184824
vt 0.769639 0.000756
vt 0.818693 0.465739
vt 0.778372 0.466495
vt 0.253459 0.202902
vt 0.253459 0.366865
vt 0.213131 0.366865
vt 0.213131 0.202902
vt 0.907780 0.163963
vt 0.907780 0.000000
vt 0.948108 0.000000
vt 0.948108 0.163963
vt 0.481518 0.592605
vt 0.539064 0.592605
vt 0.539064 0.658771
vt 0.481518 0.658771
vt 0.481518 0.582602
vt 0.539064 0.582602
vt 0.773586 0.591634
vt 0.831133 0.591634
vt 0.831133 0.657800
vt 0.773586 0.657800
vt 0.757799 0.169513
vt 0.757799 0.111966
vt 0.767802 0.111966
vt 0.767802 0.169513
vt 0.899886 0.972421
vt 0.899886 0.909991
vt 0.960284 0.909991
vt 0.960284 0.972421
vt 0.813055 0.975765
vt 0.813055 0.913335
vt 0.873453 0.913335
vt 0.873453 0.975765
vt 0.000000 0.991725
vt 0.000000 0.929295
vt 0.060398 0.929295
vt 0.060398 0.991725
vt 0.063150 1.000000
vt 0.063150 0.937570
vt 0.123548 0.937570
vt 0.123548 1.000000
vt 0.011841 0.104268
vt 0.023119 0.104268
vt 0.023119 0.161815
vt 0.011841 0.161815
vt 0.000000 0.829062
vt 0.000000 0.817783
vt 0.057546 0.817783
vt 0.057546 0.829062
vt 0.057546 0.929295
vt 0.000000 0.929295
vt 0.438102 0.852947
vt 0.495649 0.852947
vt 0.495649 0.953181
vt 0.438102 0.953181
vt 0.746818 0.969894
vt 0.706490 0.969894
vt 0.706490 0.817420
vt 0.746818 0.817420
vt 0.927514 0.404882
vt 0.927514 0.301166
vt 0.967842 0.301166
vt 0.967842 0.404882
vt 0.656040 0.985518
vt 0.615712 0.985518
vt 0.615712 0.889822
vt 0.656040 0.889822
vt 0.876205 0.380249
vt 0.876205 0.212797
vt 0.916533 0.212796
vt 0.916533 0.380249
vt 0.442049 0.000000
vt 0.453328 0.000000
vt 0.453328 0.057546
vt 0.442049 0.057546
vt 0.497305 0.869266
vt 0.497305 0.857987
vt 0.554852 0.857987
vt 0.554852 0.869266
vt 0.554852 0.948139
vt 0.497305 0.948139
vt 0.556508 0.857987
vt 0.614055 0.857987
vt 0.614055 0.936860
vt 0.556508 0.936860
vt 0.059203 0.919246
vt 0.059203 0.817783
vt 0.121633 0.817783
vt 0.121633 0.919246
vt 0.185503 0.937570
vt 0.185503 0.836107
vt 0.247932 0.836107
vt 0.247932 0.937570
vt 0.122353 0.937570
vt 0.122353 0.836107
vt 0.184783 0.836107
vt 0.184783 0.937570
vt 0.473624 0.493726
vt 0.473624 0.392262
vt 0.536054 0.392262
vt 0.536054 0.493726
vt 0.010003 0.011279
vt 0.010003 0.000000
vt 0.092990 0.000000
vt 0.092990 0.011279
vt 0.000000 0.011279
vt 0.000000 0.000000
vt 0.010003 0.111512
vt 0.000000 0.111512
vt 0.773586 0.591634
vt 0.773586 0.580355
vt 0.856573 0.580355
vt 0.856573 0.591634
vt 0.866576 0.580355
vt 0.866576 0.591634
vt 0.866576 0.691868
vt 0.856573 0.691868
vt 0.473431 0.202902
vt 0.473431 0.569767
vt 0.320956 0.569767
vt 0.106565 0.387002
vt 0.106565 0.202902
vt 0.210282 0.202902
vt 0.210282 0.366865
vt 0.377735 0.366865
vt 0.377735 0.202902
vt 0.271169 0.202902
vt 0.103717 0.202902
vt 0.103716 0.366865
vt 0.000000 0.366865
vt 0.000000 0.182765
vt 0.214391 0.000000
vt 0.366865 0.000000
vt 0.366865 0.366865
vt 0.271169 0.366865
vt 0.104728 0.011279
vt 0.104728 0.000000
vt 0.170894 0.000000
vt 0.170894 0.011279
vt 0.094725 0.011279
vt 0.094725 0.000000
vt 0.104728 0.090152
vt 0.094725 0.090152
vt 0.296015 0.581046
vt 0.296015 0.569767
vt 0.362181 0.569767
vt 0.362181 0.581046
vt 0.372184 0.569767
vt 0.372184 0.581046
vt 0.372184 0.659919
vt 0.362181 0.659919
vt 0.749905 0.918883
vt 0.749905 0.817420
vt 0.810304 0.817420
vt 0.810304 0.918883
vt 0.311803 0.954410
vt 0.311803 0.852947
vt 0.372201 0.852947
vt 0.372201 0.954410
vt 0.374953 0.954411
vt 0.374953 0.852947
vt 0.435351 0.852947
vt 0.435351 0.954411
vt 0.248653 0.937570
vt 0.248653 0.836107
vt 0.309051 0.836107
vt 0.309051 0.937570
vn 0.000000 0.000000 1.000000
vn 0.000000 0.000000 1.000000
vn 0.000000 0.000000 1.000000
vn 0.000000 0.000000 1.000000
vn 0.000000 1.000000 0.000000
vn 0.000000 1.000000 0.000000
vn 0.000000 1.000000 0.000000
vn 0.000000 1.000000 0.000000
vn 0.000000 0.000000 -1.000000
vn 0.000000 0.000000 -1.000000
vn 0.000000 0.000000 -1.000000
vn 0.000000 0.000000 -1.000000
vn 0.000000 -1.000000 0.000000
vn 0.000000 -1.000000 0.000000
vn 0.000000 -1.000000 0.000000
vn 0.000000 -1.000000 0.000000
vn 1.000000 0.000000 0.000000
vn 1.000000 0.000000 0.000000
vn 1.000000 0.000000 0.000000
vn 1.000000 0.000000 0.000000
vn -1.000000 0.000000 0.000000
vn -1.000000 0.000000 0.000000
vn -1.000000 0.000000 0.000000
vn -1.000000 0.000000 0.000000
vn 0.000000 0.000000 1.000000
vn 0.000000 0.000000 1.000000
vn 1.000000 0.000000 0.000000
vn 1.000000 0.000000 0.000000
vn 0.000000 0.000000 -1.000000
vn 0.000000 0.000000 -1.000000
vn -1.000000 0.000000 0.000000
vn -1.000000 0.000000 0.000000
vn -1.000000 0.000000 0.000000
vn -1.000000 0.000000 0.000000
vn 0.000000 -1.000000 0.000000
vn 0.000000 -1.000000 0.000000
vn 0.000000 -1.000000 0.000000
vn 0.000000 -1.000000 0.000000
vn 0.000000 0.000000 1.000000
vn 0.000000 0.000000 1.000000
vn 0.000000 0.000000 1.000000
vn 0.000000 0.000000 1.000000
vn 0.000000 1.000000 -0.000001
vn 0.000000 1.000000 -0.000001
vn 0.000000 1.000000 -0.000001
vn 0.000000 1.000000 -0.000001
vn 0.000000 0.000000 -1.000000
vn 0.000000 0.000000 -1.000000
vn 0.000000 0.000000 -1.000000
vn 0.000000 0.000000 -1.000000
vn 1.000000 0.000000 0.000000
vn 1.000000 0.000000 0.000000
vn 1.000000 0.000000 0.000000
vn 1.000000 0.000000 0.000000
vn -1.000000 0.000000 0.000000
vn -1.000000 0.000000 0.000000
vn -1.000000 0.000000 0.000000
vn -1.000000 0.000000 0.000000
vn 0.000000 0.000000 1.000000
vn 0.000000 0.000000 1.000000
vn 0.000000 0.000000 1.000000
vn 0.000000 0.000000 1.000000
vn 0.000000 0.000000 1.000000
vn -0.000000 0.000000 1.000000
vn -0.000000 0.000000 1.000000
vn -0.000000 0.000000 1.000000
vn 0.000000 0.000000 1.000000
vn 0.000000 1.000000 0.000000
vn 0.000000 1.000000 0.000000
vn 0.000000 1.000000 0.000000
vn 0.000000 1.000000 0.000000
vn 0.000000 0.000000 -1.000000
vn 0.000000 0.000000 -1.000000
vn -0.000000 0.000000 -1.000000
vn -0.000000 0.000000 -1.000000
vn -0.000000 0.000000 -1.000000
vn 0.000000 0.000000 -1.000000
vn 0.000000 0.000000 -1.000000
vn 0.000000 0.000000 -1.000000
vn 0.000000 0.000000 -1.000000
vn 0.000000 -1.000000 0.000000
vn 0.000000 -1.000000 0.000000
vn 0.000000 -1.000000 0.000000
vn 0.000000 -1.000000 0.000000
vn 0.000000 -1.000000 0.000000
vn 0.000000 -1.000000 0.000000
vn 0.000000 -1.000000 0.000000
vn 0.000000 -1.000000 0.000000
vn -0.648746 0.761005 0.000000
vn -0.648746 0.761005 0.000000
vn -0.648746 0.761005 0.000000
vn -0.648746 0.761005 0.000000
vn 1.000000 -0.000000 0.000000
vn 1.000000 0.000000 0.000002
vn 1.000000 -0.000000 0.000000
vn 1.000000 0.000000 0.000002
vn 0.000000 -1.000000 -0.000001
vn 0.000000 -1.000000 -0.000000
vn 0.000000 -1.000000 -0.000000
vn 0.000000 -1.000000 0.000000
vn -1.000000 -0.000001 0.000006
vn -1.000000 -0.000000 0.000001
vn -1.000000 -0.000001 0.000005
vn -1.000000 0.000000 0.000000
vn 0.000000 0.000000 1.000000
vn 0.000000 0.000000 1.000000
vn 0.000000 0.000000 1.000000
vn 0.000000 0.000000 1.000000
vn 0.000000 1.000000 0.000000
vn 0.000000 1.000000 0.000000
vn 0.000000 1.000000 0.000000
vn 0.000000 1.000000 0.000000
vn 0.000000 0.000000 -1.000000
vn 0.000000 0.000000 -1.000000
vn 0.000000 0.000000 -1.000000
vn 0.000000 0.000000 -1.000000
vn 0.000000 -1.000000 0.000000
vn 0.000000 -1.000000 0.000000
vn 0.000000 -1.000000 0.000000
vn 0.000000 -1.000000 0.000000
vn 1.000000 0.000000 0.000000
vn 1.000000 0.000000 0.000000
vn 1.000000 0.000000 0.000000
vn 1.000000 0.000000 0.000000
vn -1.000000 0.000000 0.000000
vn -1.000000 0.000000 0.000000
vn -1.000000 0.000000 0.000000
vn -1.000000 0.000000 0.000000
vn 0.000000 0.000000 1.000000
vn 0.000000 0.000000 1.000000
vn 1.000000 0.000000 0.000000
vn 1.000000 0.000000 0.000000
vn 0.000000 0.000000 -1.000000
vn 0.000000 0.000000 -1.000000
vn -1.000000 0.000000 0.000000
vn -1.000000 0.000000 0.000000
vn -1.000000 0.000000 0.000000
vn -1.000000 0.000000 0.000000
vn 0.000000 -1.000000 0.000000
vn 0.000000 -1.000000 0.000000
vn 0.000000 -1.000000 0.000000
vn 0.000000 -1.000000 0.000000
vn 0.000000 0.000000 1.000000
vn 0.000000 0.000000 1.000000
vn 0.000000 0.000000 1.000000
vn 0.000000 0.000000 1.000000
vn 0.000000 1.000000 0.000000
vn 0.000000 1.000000 -0.000001
vn 0.000000 1.000000 -0.000001
vn 0.000000 1.000000 -0.000001
vn 0.000000 0.000000 -1.000000
vn 0.000000 0.000000 -1.000000
vn 0.000000 0.000000 -1.000000
vn 0.000000 0.000000 -1.000000
vn 0.000000 0.000000 1.000000
vn 0.000000 0.000000 1.000000
vn 0.000000 0.000000 1.000000
vn 0.000000 0.000000 1.000000
vn 0.000000 1.000000 0.000000
vn 0.000000 1.000000 0.000000
vn 0.000000 1.000000 0.000000
vn 0.000000 1.000000 0.000000
vn 0.000000 0.000000 -1.000000
vn 0.000000 0.000000 -1.000000
vn 0.000000 0.000000 -1.000000
vn 0.000000 0.000000 -1.000000
vn 0.000000 -1.000000 0.000000
vn 0.000000 -1.000000 0.000000
vn 0.000000 -1.000000 0.000000
vn 0.000000 -1.000000 0.000000
vn 1.000000 0.000000 0.000000
vn 1.000000 0.000000 0.000000
vn 1.000000 0.000000 0.000000
vn 1.000000 0.000000 0.000000
vn -1.000000 0.000000 0.000000
vn -1.000000 0.000000 0.000000
vn -1.000000 0.000000 0.000000
vn -1.000000 0.000000 0.000000
vn 0.000000 0.000000 1.000000
vn 0.000000 0.000000 1.000000
vn 0.000000 0.000000 1.000000
vn 0.000000 0.000000 1.000000
vn 0.000000 1.000000 0.000000
vn 0.000000 1.000000 0.000000
vn 0.000000 1.000000 0.000000
vn 0.000000 1.000000 0.000000
vn 0.000000 0.000000 -1.000000
vn 0.000000 0.000000 -1.000000
vn 0.000000 0.000000 -1.000000
vn 0.000000 0.000000 -1.000000
vn 0.000000 -1.000000 0.000000
vn 0.000000 -1.000000 0.000000
vn 0.000000 -1.000000 0.000000
vn 0.000000 -1.000000 0.000000
vn 1.000000 0.000000 0.000000
vn 1.000000 0.000000 0.000000
vn 1.000000 0.000000 0.000000
vn 1.000000 0.000000 0.000000
vn -1.000000 0.000000 0.000000
vn -1.000000 0.000000 0.000000
vn -1.000000 0.000000 0.000000
vn -1.000000 0.000000 0.000000
s 1
g Chip_Base
usemtl initialShadingGroup
f 9/123/1 10/124/2 3/126/3
f 3/126/3 10/124/2 4/125/4
s 2
f 3/63/5 4/64/6 5/66/7
f 5/66/7 4/64/6 6/65/8
s 3
f 5/131/9 6/132/10 12/134/11
f 12/134/11 6/132/10 11/133/12
s 4
f 7/67/13 8/68/14 1/70/15
f 1/70/15 8/68/14 2/69/16
s 5
f 10/1/17 11/2/18 4/4/19
f 4/4/19 11/2/18 6/3/20
s 6
f 12/7/21 9/8/22 5/10/23
f 5/10/23 9/8/22 3/9/24
s 1
f 1/127/25 2/128/26 9/123/1
f 9/123/1 2/128/26 10/124/2
s 5
f 2/5/27 8/6/28 10/1/17
f 10/1/17 8/6/28 11/2/18
s 3
f 12/134/11 11/133/12 7/136/29
f 7/136/29 11/133/12 8/135/30
s 7
f 13/11/31 14/12/32 16/14/33
f 16/14/33 14/12/32 15/13/34
s 8
f 7/67/35 1/70/36 13/72/37
f 13/72/37 1/70/36 14/71/38
s 9
f 1/127/39 9/123/40 14/130/41
f 14/130/41 9/123/40 15/129/42
s 10
f 9/73/43 12/74/44 15/76/45
f 15/76/45 12/74/44 16/75/46
s 11
f 12/134/47 7/136/48 16/138/49
f 16/138/49 7/136/48 13/137/50
s 12
f 20/15/51 19/16/52 22/18/53
f 22/18/53 19/16/52 18/17/54
s 13
f 17/19/55 24/20/56 21/22/57
f 21/22/57 24/20/56 23/21/58
s 14
f 18/139/59 19/140/60 28/147/61
f 28/147/61 19/140/60 33/146/62
f 19/140/60 25/141/63 33/146/62
f 25/141/63 24/142/64 33/146/62
f 33/146/62 24/142/64 34/145/65
f 24/142/64 17/143/66 34/145/65
f 17/143/66 27/144/67 34/145/65
s 15
f 26/77/68 25/78/69 20/80/70
f 20/80/70 25/78/69 19/79/71
s 16
f 29/150/72 21/151/73 32/149/74
f 21/151/73 23/152/75 32/149/74
f 23/152/75 26/153/76 32/149/74
f 32/149/74 26/153/76 31/148/77
f 26/153/76 20/154/78 31/148/77
f 20/154/78 22/155/79 31/148/77
f 31/148/77 22/155/79 30/156/80
s 17
f 21/81/81 29/82/82 17/84/83
f 17/84/83 29/82/82 27/83/84
s 18
f 28/85/85 30/86/86 18/88/87
f 18/88/87 30/86/86 22/87/88
s 19
f 24/20/89 25/23/90 23/21/91
f 23/21/91 25/23/90 26/24/92
s 20
f 29/25/93 32/26/94 27/28/95
f 27/28/95 32/26/94 34/27/96
s 21
f 32/89/97 31/90/98 34/92/99
f 34/92/99 31/90/98 33/91/100
s 22
f 31/29/101 30/30/102 33/32/103
f 33/32/103 30/30/102 28/31/104
s 23
f 43/157/105 44/158/106 37/160/107
f 37/160/107 44/158/106 38/159/108
s 24
f 37/93/109 38/94/110 39/96/111
f 39/96/111 38/94/110 40/95/112
s 25
f 39/165/113 40/166/114 46/168/115
f 46/168/115 40/166/114 45/167/116
s 26
f 41/97/117 42/98/118 35/100/119
f 35/100/119 42/98/118 36/99/120
s 27
f 44/33/121 45/34/122 38/36/123
f 38/36/123 45/34/122 40/35/124
s 28
f 46/39/125 43/40/126 39/42/127
f 39/42/127 43/40/126 37/41/128
s 23
f 35/161/129 36/162/130 43/157/105
f 43/157/105 36/162/130 44/158/106
s 27
f 36/37/131 42/38/132 44/33/121
f 44/33/121 42/38/132 45/34/122
s 25
f 46/168/115 45/167/116 41/170/133
f 41/170/133 45/167/116 42/169/134
s 29
f 47/43/135 48/44/136 50/46/137
f 50/46/137 48/44/136 49/45/138
s 30
f 41/97/139 35/100/140 47/102/141
f 47/102/141 35/100/140 48/101/142
s 31
f 35/161/143 43/157/144 48/164/145
f 48/164/145 43/157/144 49/163/146
s 32
f 43/103/147 46/104/148 49/106/149
f 49/106/149 46/104/148 50/105/150
s 33
f 46/168/151 41/170/152 50/172/153
f 50/172/153 41/170/152 47/171/154
s 34
f 51/173/155 52/174/156 53/176/157
f 53/176/157 52/174/156 54/175/158
s 35
f 53/107/159 54/108/160 55/110/161
f 55/110/161 54/108/160 56/109/162
s 36
f 55/177/163 56/178/164 57/180/165
f 57/180/165 56/178/164 58/179/166
s 37
f 57/111/167 58/112/168 51/114/169
f 51/114/169 58/112/168 52/113/170
s 38
f 52/47/171 58/48/172 54/50/173
f 54/50/173 58/48/172 56/49/174
s 39
f 57/51/175 51/52/176 55/54/177
f 55/54/177 51/52/176 53/53/178
s 40
f 59/181/179 60/182/180 61/184/181
f 61/184/181 60/182/180 62/183/182
s 41
f 61/115/183 62/116/184 63/118/185
f 63/118/185 62/116/184 64/117/186
s 42
f 63/185/187 64/186/188 65/188/189
f 65/188/189 64/186/188 66/187/190
s 43
f 65/119/191 66/120/192 59/122/193
f 59/122/193 66/120/192 60/121/194
s 44
f 60/55/195 66/56/196 62/58/197
f 62/58/197 66/56/196 64/57/198
s 45
f 65/59/199 59/60/200 63/62/201
f 63/62/201 59/60/200 61/61/202
