# This file uses meters as units for non-parametric coordinates.

mtllib Chip_RightUp.mtl
g default
v -29.219250 2.266237 5.496304
v 29.219250 52.084236 5.496304
v 29.219250 52.084236 -5.496304
v -29.219250 2.266230 -5.496304
v -25.052715 10.960527 5.496304
v 18.817165 48.358986 5.496304
v -25.052715 48.358986 5.496304
v -25.052715 48.358986 -5.496304
v 18.817165 48.358986 -5.496304
v -25.052715 10.960520 -5.496304
v -25.052715 10.960527 3.942003
v 18.817165 48.358986 3.942003
v -25.052715 48.358986 3.942003
v -25.052715 48.358986 -4.336441
v 18.817165 48.358986 -4.336441
v -25.052715 10.960520 -4.336441
v -27.136196 50.221794 5.496304
v -25.267590 52.084236 5.496304
v -28.061840 50.926819 5.496304
v -29.219250 48.132576 5.496304
v -27.136196 50.221794 -5.496304
v -29.219250 48.132576 -5.496304
v -28.061840 50.926819 -5.496304
v -25.267590 52.084236 -5.496304
vt 0.000000 0.817783
vt 0.000000 0.450918
vt 0.168268 0.450918
vt 0.168268 0.817783
vt 0.179363 0.450918
vt 0.179363 0.817783
vt 0.651233 0.889822
vt 0.651233 0.752620
vt 0.703106 0.752620
vt 0.703106 0.889822
vt 0.958329 0.163963
vt 0.958329 0.301166
vt 0.919620 0.301166
vt 0.919620 0.163963
vt 0.571551 0.752620
vt 0.571551 0.385755
vt 0.771444 0.385755
vt 0.771444 0.752620
vt 0.560455 0.385755
vt 0.560455 0.752620
vt 0.418932 0.000000
vt 0.418932 0.160943
vt 0.367059 0.160943
vt 0.367059 0.000000
vt 0.911727 0.705310
vt 0.911727 0.544366
vt 0.950436 0.544366
vt 0.950436 0.705310
vt 0.718330 0.817420
vt 0.855532 0.656476
vt 0.855532 0.817420
vt 0.513093 0.857987
vt 0.513093 0.697044
vt 0.650295 0.857987
vt 0.374953 0.685495
vt 0.557718 0.471104
vt 0.544051 0.509266
vt 0.406849 0.670209
vt 0.557718 0.670998
vt 0.550885 0.677853
vt 0.544051 0.670209
vt 0.543220 0.685495
vt 0.553471 0.681249
vt 0.181556 0.454264
vt 0.364321 0.668655
vt 0.332425 0.653369
vt 0.195223 0.492426
vt 0.196053 0.668655
vt 0.188389 0.661013
vt 0.195223 0.653369
vt 0.181556 0.654157
vt 0.185802 0.664409
vt 0.773539 0.365164
vt 0.493125 0.392263
vt 0.457837 0.027098
vt 0.738251 0.000000
vt 0.872727 0.366119
vt 0.885508 0.577221
vt 0.833729 0.580355
vt 0.820949 0.369254
vt 0.870349 0.213073
vt 0.860417 0.001818
vt 0.899084 0.000000
vt 0.909015 0.211255
vn 0.000000 0.000000 1.000000
vn 0.000000 0.000000 1.000000
vn 0.000000 0.000000 1.000000
vn -0.020202 0.999796 0.000000
vn -0.020202 0.999796 0.000000
vn 0.000000 1.000000 0.000000
vn 0.000000 1.000000 0.000000
vn 0.000000 0.000000 -1.000000
vn 0.000000 0.000000 -1.000000
vn 0.000000 0.000000 -1.000000
vn -1.000000 0.000000 0.000000
vn -1.000000 0.000000 0.000000
vn -0.999717 0.023779 0.000000
vn -0.999717 0.023779 0.000000
vn 0.648746 -0.761005 0.000000
vn 0.648746 -0.761005 0.000000
vn 0.648746 -0.761005 0.000000
vn 0.648746 -0.761005 0.000000
vn 0.000000 0.000000 1.000000
vn -0.000000 0.000000 1.000000
vn -0.000000 0.000000 1.000000
vn -0.000000 0.000000 1.000000
vn 0.000000 0.000000 1.000000
vn 0.000000 0.000000 1.000000
vn 0.000000 0.000000 1.000000
vn 0.000000 0.000000 1.000000
vn 0.000000 0.000000 1.000000
vn -0.000000 0.000000 -1.000000
vn -0.000000 0.000000 -1.000000
vn -0.000000 0.000000 -1.000000
vn -0.000000 0.000000 -1.000000
vn -0.000000 0.000000 -1.000000
vn -0.000000 0.000000 -1.000000
vn -0.000000 0.000000 -1.000000
vn 0.000000 0.000000 -1.000000
vn 0.000000 0.000000 -1.000000
vn -0.648746 0.761005 0.000000
vn -0.648746 0.761005 0.000000
vn -0.648746 0.761005 0.000000
vn -0.648746 0.761005 0.000000
vn 0.000000 -1.000000 0.000000
vn 0.000000 -1.000000 0.000000
vn 0.000000 -1.000000 0.000000
vn 0.000000 -1.000000 0.000000
vn 1.000000 0.000000 0.000000
vn 1.000000 0.000000 0.000000
vn 1.000000 0.000000 0.000000
vn 1.000000 0.000000 0.000000
vn 0.000000 -1.000000 0.000000
vn 0.000000 -1.000000 0.000000
vn 0.000000 -1.000000 0.000000
vn 0.000000 -1.000000 0.000000
vn -0.648746 0.761005 0.000000
vn -0.648746 0.761005 0.000000
vn -0.648746 0.761005 0.000000
vn -0.648746 0.761005 0.000000
vn 1.000000 0.000000 0.000000
vn 1.000000 0.000000 0.000000
vn 1.000000 0.000000 0.000000
vn 1.000000 0.000000 0.000000
vn 0.000000 0.000000 1.000000
vn 0.000000 0.000000 1.000000
vn 0.000000 0.000000 1.000000
vn 0.000000 0.000000 1.000000
vn 0.000000 0.000000 -1.000000
vn 0.000000 0.000000 -1.000000
vn 0.000000 0.000000 -1.000000
vn 0.000000 0.000000 -1.000000
vn -0.923880 0.382683 0.000000
vn -0.923880 0.382683 0.000000
vn -0.382684 0.923879 0.000000
vn -0.382683 0.923880 0.000000
vn 0.000000 0.000000 1.000000
vn 0.000000 0.000000 -1.000000
s off
g Chip_RightUp
usemtl initialShadingGroup
f 11/29/1 12/30/2 13/31/3
s 1
f 24/15/4 18/16/5 3/18/6
f 3/18/6 18/16/5 2/17/7
s off
f 14/32/8 15/33/9 16/34/10
s 2
f 4/1/11 1/2/12 22/4/13
f 22/4/13 1/2/12 20/3/14
s 3
f 2/53/15 1/54/16 3/56/17
f 3/56/17 1/54/16 4/55/18
s 4
f 2/36/19 6/37/20 1/35/21
f 1/35/21 6/37/20 5/38/22
s 5
f 2/36/23 18/39/24 6/37/25
f 17/40/26 7/41/27 18/39/24
f 18/39/24 7/41/27 6/37/25
s 6
f 3/44/28 4/45/29 9/47/30
f 9/47/30 4/45/29 10/46/31
s 7
f 4/45/32 22/48/33 10/46/34
f 21/49/35 8/50/36 22/48/33
f 22/48/33 8/50/36 10/46/34
s 8
f 5/57/37 6/58/38 11/60/39
f 11/60/39 6/58/38 12/59/40
s 9
f 6/21/41 7/22/42 12/24/43
f 12/24/43 7/22/42 13/23/44
s 10
f 7/7/45 5/8/46 13/10/47
f 13/10/47 5/8/46 11/9/48
s 11
f 8/25/49 9/26/50 14/28/51
f 14/28/51 9/26/50 15/27/52
s 12
f 9/61/53 10/62/54 15/64/55
f 15/64/55 10/62/54 16/63/56
s 13
f 10/11/57 8/12/58 16/14/59
f 16/14/59 8/12/58 14/13/60
s 5
f 1/35/61 5/38/62 20/42/63
f 17/40/26 20/42/63 7/41/64
f 20/42/63 5/38/62 7/41/64
s 7
f 3/44/65 9/47/66 24/51/67
f 21/49/35 24/51/67 8/50/68
f 24/51/67 9/47/66 8/50/68
s 2
f 20/3/14 19/5/69 22/4/13
f 22/4/13 19/5/69 23/6/70
s 1
f 19/19/71 18/16/5 23/20/72
f 23/20/72 18/16/5 24/15/4
s 5
f 17/40/26 18/39/24 19/43/73
f 17/40/26 19/43/73 20/42/63
s 7
f 21/49/35 22/48/33 23/52/74
f 21/49/35 23/52/74 24/51/67
