# This file uses meters as units for non-parametric coordinates.

mtllib MiddlePillar.mtl
g default
v -113.102745 -2.533588 428.295159
v -21.909767 -2.533588 428.295159
v -170.046967 597.466431 428.295159
v 35.034477 597.466431 428.295159
v -170.046967 597.466431 337.102189
v 35.034477 597.466431 337.102189
v -113.102745 -2.533588 337.102181
v -21.909767 -2.533588 337.102181
v -170.046997 516.256042 428.295159
v 35.034477 516.256042 428.295159
v 35.034477 516.256226 337.102181
v -170.046997 516.256226 337.102181
v -113.102745 444.477478 428.295159
v -21.909767 444.477478 428.295159
v -21.909767 444.477478 337.102181
v -113.102745 444.477478 337.102181
v -113.102745 61.325397 428.295159
v -21.909767 61.325397 428.295159
v -21.909767 61.325424 337.102181
v -113.102745 61.325424 337.102181
v -113.102745 125.184219 428.295159
v -21.909767 125.184219 428.295159
v -21.909767 125.184219 337.102181
v -113.102745 125.184219 337.102181
v -113.102745 189.042908 428.295159
v -21.909767 189.042908 428.295159
v -21.909767 189.042908 337.102181
v -113.102745 189.042908 337.102181
v -113.102745 252.901688 428.295159
v -21.909767 252.901688 428.295159
v -21.909767 252.901688 337.102181
v -113.102745 252.901688 337.102181
v -113.102745 316.760132 428.295159
v -21.909767 316.760132 428.295159
v -21.909767 316.760132 337.102181
v -113.102745 316.760132 337.102181
v -113.102745 380.618896 428.295159
v -21.909767 380.618896 428.295159
v -21.909767 380.618896 337.102181
v -113.102745 380.618896 337.102181
v -90.987442 -2.533520 428.295159
v -90.987442 -2.533520 337.102181
v -90.987442 79.862335 337.102181
v -90.987442 106.647720 337.102181
v -90.987442 207.579498 337.102181
v -90.987442 234.365021 337.102181
v -90.987442 335.296631 337.102181
v -90.987442 362.082214 337.102181
v -90.987442 444.477478 337.102181
v -90.987442 444.477478 428.295159
v -90.987442 362.082214 428.295159
v -90.987442 335.296631 428.295159
v -90.987442 234.365021 428.295159
v -90.987442 207.579498 428.295159
v -90.987442 106.647675 428.295159
v -90.987442 79.862305 428.295159
v -44.025101 -2.533520 428.295159
v -44.025101 -2.533520 337.102181
v -44.025101 79.862335 337.102181
v -44.025101 106.647720 337.102181
v -44.025101 207.579498 337.102181
v -44.025101 234.365021 337.102181
v -44.025101 335.296631 337.102181
v -44.025101 362.082214 337.102181
v -44.025101 444.477478 337.102181
v -44.025101 444.477478 428.295159
v -44.025101 362.082214 428.295159
v -44.025101 335.296631 428.295159
v -44.025101 234.365021 428.295159
v -44.025101 207.579498 428.295159
v -44.025101 106.647675 428.295159
v -44.025101 79.862305 428.295159
vt 0.735118 0.776970
vt 0.866662 0.777853
vt 0.865875 0.894998
vt 0.734331 0.894114
vt 0.736005 0.644805
vt 0.867550 0.645688
vt 0.736625 0.552690
vt 0.868168 0.553574
vt 0.737243 0.460575
vt 0.868788 0.461459
vt 0.737863 0.368461
vt 0.869406 0.369344
vt 0.738481 0.276345
vt 0.870025 0.277229
vt 0.739100 0.184230
vt 0.870643 0.185114
vt 0.739718 0.092115
vt 0.871263 0.092999
vt 0.740338 0.000000
vt 0.871881 0.000884
vt 0.598850 0.776970
vt 0.730394 0.777853
vt 0.729608 0.894998
vt 0.598063 0.894114
vt 0.599738 0.644805
vt 0.731282 0.645689
vt 0.600357 0.552690
vt 0.731901 0.553574
vt 0.600976 0.460575
vt 0.732520 0.461459
vt 0.601595 0.368461
vt 0.733138 0.369344
vt 0.602214 0.276345
vt 0.733757 0.277229
vt 0.602832 0.184231
vt 0.734376 0.185114
vt 0.603451 0.092115
vt 0.734995 0.092999
vt 0.604070 0.000000
vt 0.735614 0.000884
vt 0.874384 0.131547
vt 0.993240 0.131547
vt 0.993240 0.263094
vt 0.874384 0.263094
vt 0.989455 0.394641
vt 0.870598 0.394641
vt 0.870598 0.263094
vt 0.989455 0.263094
vt 0.223327 0.441428
vt 0.223327 0.295832
vt 0.354874 0.295832
vt 0.354874 0.441428
vt 0.351089 0.441428
vt 0.351089 0.587023
vt 0.219542 0.587023
vt 0.219542 0.441428
vt 0.170334 0.868455
vt 0.315927 0.867681
vt 0.316628 0.999226
vt 0.171034 1.000000
vt 0.383668 0.867319
vt 0.529258 0.866534
vt 0.529969 0.998079
vt 0.384373 0.998864
vt 0.993241 0.131547
vt 0.874384 0.131547
vt 0.874384 0.000000
vt 0.993241 0.000000
vt 0.000000 0.865879
vt 0.118857 0.865879
vt 0.118857 0.997426
vt 0.000000 0.997426
vt 0.514789 0.131547
vt 0.514789 0.000000
vt 0.546690 0.000000
vt 0.546690 0.131547
vt 0.548856 0.000000
vt 0.580757 0.000000
vt 0.580757 0.131547
vt 0.548856 0.131547
vt 0.354875 0.295832
vt 0.223327 0.295832
vt 0.223327 0.000000
vt 0.354875 0.000000
vt 0.870598 0.394641
vt 0.938342 0.394641
vt 0.938342 0.526188
vt 0.870598 0.526188
vt 0.000000 0.263094
vt 0.067744 0.263094
vt 0.067744 0.394641
vt 0.000000 0.394641
vt 0.597713 0.997712
vt 0.597000 0.866167
vt 0.067744 0.263094
vt 0.000000 0.263094
vt 0.000000 0.131547
vt 0.067744 0.131547
vt 0.067744 0.526188
vt 0.000000 0.526188
vt 0.000000 0.394641
vt 0.067744 0.394641
vt 0.067744 0.131547
vt 0.000000 0.131547
vt 0.000000 0.000000
vt 0.067744 0.000000
vt 0.594864 0.748360
vt 0.480821 0.644819
vt 0.512722 0.644819
vt 0.299032 0.748360
vt 0.413077 0.644819
vt 0.480821 0.525963
vt 0.512722 0.552702
vt 0.381175 0.644819
vt 0.299032 0.865507
vt 0.594864 0.865507
vt 0.480820 0.487324
vt 0.512722 0.460585
vt 0.381175 0.552702
vt 0.413077 0.525963
vt 0.413077 0.487324
vt 0.480820 0.341729
vt 0.512722 0.368468
vt 0.381175 0.460585
vt 0.480820 0.303091
vt 0.512722 0.276351
vt 0.413077 0.341729
vt 0.381175 0.368468
vt 0.413077 0.303091
vt 0.480820 0.157495
vt 0.512722 0.184234
vt 0.381175 0.276351
vt 0.480820 0.118857
vt 0.512722 0.092117
vt 0.413076 0.157495
vt 0.381175 0.184234
vt 0.413076 0.118857
vt 0.480820 0.000000
vt 0.512722 0.000000
vt 0.381175 0.092117
vt 0.413076 0.000000
vt 0.381175 0.000000
vt 0.116428 0.645126
vt 0.001269 0.747427
vt 0.084528 0.644781
vt 0.184168 0.645860
vt 0.297084 0.750631
vt 0.085525 0.552670
vt 0.117715 0.526277
vt 0.216067 0.646206
vt 0.295815 0.867771
vt 0.000000 0.864567
vt 0.118133 0.487641
vt 0.086523 0.460558
vt 0.185455 0.527011
vt 0.217065 0.554094
vt 0.185873 0.488375
vt 0.119710 0.342055
vt 0.087521 0.368447
vt 0.218063 0.461983
vt 0.120128 0.303418
vt 0.088518 0.276335
vt 0.187450 0.342788
vt 0.219060 0.369872
vt 0.187869 0.304152
vt 0.121705 0.157832
vt 0.089516 0.184224
vt 0.220058 0.277760
vt 0.122124 0.119196
vt 0.090514 0.092112
vt 0.189445 0.158565
vt 0.221056 0.185648
vt 0.189864 0.119929
vt 0.123411 0.000346
vt 0.091511 0.000000
vt 0.222053 0.093537
vt 0.191151 0.001079
vt 0.223051 0.001425
vn -0.000003 -1.000000 0.000000
vn -0.000003 -1.000000 0.000000
vn -0.000003 -1.000000 0.000000
vn -0.000003 -1.000000 0.000000
vn 0.937186 -0.348831 -0.000000
vn 0.937186 -0.348831 -0.000001
vn 1.000000 0.000000 0.000000
vn 1.000000 0.000000 0.000000
vn -0.937186 -0.348831 -0.000000
vn -0.937185 -0.348832 -0.000001
vn -1.000000 0.000000 0.000000
vn -1.000000 0.000001 0.000000
vn 0.000000 0.000000 1.000000
vn 0.000000 0.000000 1.000000
vn 0.000000 0.000000 1.000000
vn 0.922039 -0.387098 0.000000
vn 0.922039 -0.387097 -0.000000
vn 0.000000 0.000000 -1.000000
vn 0.000000 0.000000 -1.000000
vn 0.000000 0.000000 -1.000000
vn -0.922039 -0.387097 0.000000
vn -0.922039 -0.387097 -0.000000
vn 1.000000 0.000000 0.000000
vn 1.000000 0.000000 0.000000
vn -1.000000 0.000000 0.000000
vn -1.000000 0.000000 0.000000
vn 0.000000 0.000000 -1.000000
vn 0.000000 0.000000 -1.000000
vn 0.000000 0.000000 -1.000000
vn 0.000000 0.000000 -1.000000
vn 0.000000 0.000000 1.000000
vn 0.000000 0.000000 1.000000
vn 0.000000 0.000000 1.000000
vn 0.000000 0.000000 1.000000
vn -0.000000 0.000000 1.000000
vn 0.000000 0.000000 1.000000
vn -0.000000 0.000000 1.000000
vn 0.000000 0.000000 1.000000
vn 1.000000 0.000000 0.000000
vn 1.000000 0.000000 0.000000
vn 1.000000 0.000000 0.000000
vn 1.000000 0.000000 0.000000
vn 0.000000 0.000000 -1.000000
vn 0.000001 0.000000 -1.000000
vn -0.000000 0.000000 -1.000000
vn -0.000000 0.000000 -1.000000
vn -1.000000 0.000000 0.000000
vn -1.000000 0.000000 0.000000
vn -1.000000 0.000000 0.000000
vn -1.000000 0.000000 0.000000
vn 0.000000 0.000000 1.000000
vn 0.000000 0.000000 1.000000
vn 1.000000 0.000000 0.000000
vn 1.000000 0.000000 0.000000
vn 0.000000 0.000000 -1.000000
vn 0.000000 0.000000 -1.000000
vn -1.000000 0.000000 0.000000
vn -1.000000 0.000000 0.000000
vn -0.000000 0.000000 1.000000
vn -0.000000 0.000000 1.000000
vn 1.000000 0.000000 0.000000
vn 1.000000 0.000000 0.000000
vn 0.000000 0.000000 -1.000000
vn 0.000000 0.000000 -1.000000
vn -1.000000 0.000000 0.000000
vn -1.000000 0.000000 0.000000
vn -0.000000 0.000000 1.000000
vn -0.000000 0.000000 1.000000
vn 1.000000 0.000000 0.000000
vn 1.000000 0.000000 0.000000
vn 0.000000 0.000000 -1.000000
vn 0.000000 0.000000 -1.000000
vn -1.000000 0.000000 0.000000
vn -1.000000 0.000000 0.000000
vn 0.000000 0.000000 1.000000
vn 0.000000 0.000000 1.000000
vn 1.000000 0.000000 0.000000
vn 1.000000 0.000000 0.000000
vn -0.000000 0.000000 -1.000000
vn 0.000000 0.000000 -1.000000
vn -1.000000 0.000000 0.000000
vn -1.000000 0.000000 0.000000
vn 0.000003 -1.000000 0.000000
vn 0.000003 -1.000000 0.000000
vn 0.000003 -1.000000 0.000000
vn 0.000003 -1.000000 0.000000
vn -0.000000 0.000000 -1.000000
vn 0.000000 0.000000 -1.000000
vn -0.000001 0.000000 -1.000000
vn 0.000001 0.000000 -1.000000
vn -0.000000 0.000000 -1.000000
vn -0.000000 0.000000 -1.000000
vn -0.000000 0.000000 -1.000000
vn -0.000000 0.000000 -1.000000
vn -0.000000 0.000000 -1.000000
vn -0.000000 0.000000 -1.000000
vn -0.000000 0.000000 -1.000000
vn 0.000000 0.000000 -1.000000
vn -0.000000 0.000000 -1.000000
vn -0.000000 0.000000 -1.000000
vn 0.000000 0.000000 -1.000000
vn 0.000000 0.000000 -1.000000
vn 0.000000 0.000000 -1.000000
vn 0.000000 0.000000 -1.000000
vn 0.000000 0.000000 -1.000000
vn 0.000000 0.000000 1.000000
vn 0.000000 0.000000 1.000000
vn 0.000000 0.000000 1.000000
vn 0.000000 0.000000 1.000000
vn 0.000000 0.000000 1.000000
vn 0.000000 0.000000 1.000000
vn 0.000000 0.000000 1.000000
vn -0.000000 0.000000 1.000000
vn -0.000000 0.000000 1.000000
vn 0.000000 0.000000 1.000000
vn 0.000000 0.000000 1.000000
vn 0.000000 0.000000 1.000000
vn 0.000000 0.000000 1.000000
vn -0.000000 0.000000 1.000000
vn -0.000000 0.000000 1.000000
vn 0.000000 0.000000 1.000000
vn 0.000000 0.000000 1.000000
vn 0.000000 0.000000 1.000000
vn -0.000000 0.000000 1.000000
vn 0.000000 0.000000 -1.000000
vn 0.000000 0.000000 -1.000000
vn 0.000000 1.000000 0.000000
vn 0.000000 1.000000 0.000000
vn 0.000000 1.000000 0.000000
vn 0.000000 1.000000 0.000000
vn 0.000000 0.000000 1.000000
vn 0.000000 0.000000 1.000000
vn 0.000000 1.000000 0.000001
vn 0.000000 1.000000 0.000001
vn 0.000000 1.000000 0.000001
vn 0.000000 1.000000 0.000000
vn 0.000000 1.000000 0.000000
vn 0.000000 1.000000 0.000000
vn 0.000000 1.000000 0.000000
vn 0.000000 1.000000 0.000000
vn 0.000000 1.000000 0.000000
vn 0.000000 1.000000 0.000000
vn 0.000000 1.000000 0.000000
vn 0.000000 1.000000 0.000000
vn 0.000000 -1.000000 0.000000
vn 0.000000 -1.000000 0.000000
vn 0.000000 -1.000000 0.000000
vn 0.000000 -1.000000 0.000000
vn 0.000000 -1.000000 -0.000000
vn 0.000000 -1.000000 -0.000000
vn 0.000000 -1.000000 -0.000000
vn 0.000000 -1.000000 -0.000000
vn 0.000000 -1.000000 0.000000
vn 0.000000 -1.000000 0.000000
vn 0.000000 -1.000000 0.000000
vn 0.000000 -1.000000 0.000000
vn 1.000000 0.000000 0.000000
vn 1.000000 0.000000 0.000000
vn 1.000000 0.000000 0.000000
vn 1.000000 0.000000 0.000000
vn -1.000000 0.000000 0.000000
vn -1.000000 0.000000 0.000000
vn -1.000000 0.000000 0.000000
vn -1.000000 0.000000 0.000000
vn -1.000000 0.000000 0.000000
vn -1.000000 0.000000 0.000000
vn -1.000000 0.000000 0.000000
vn -1.000000 0.000000 0.000000
vn 1.000000 0.000000 0.000000
vn 1.000000 0.000000 0.000000
vn 1.000000 0.000000 0.000000
vn 1.000000 0.000000 0.000000
vn -1.000000 0.000000 0.000000
vn -1.000000 0.000000 0.000000
vn -1.000000 0.000000 0.000000
vn -1.000000 0.000000 0.000000
vn 1.000000 0.000000 0.000000
vn 1.000000 0.000000 0.000000
vn 1.000000 0.000000 0.000000
vn 1.000000 0.000000 0.000000
vn -1.000000 0.000000 0.000000
vn -1.000000 0.000000 0.000000
vn -1.000000 0.000000 0.000000
vn -1.000000 0.000000 0.000000
vn 1.000000 0.000000 0.000000
vn 1.000000 0.000000 0.000000
vn 1.000000 0.000000 0.000000
vn 1.000000 0.000000 0.000000
vn 0.000000 -1.000000 0.000000
vn 0.000000 -1.000000 0.000000
vn 0.000000 -1.000000 0.000000
vn 0.000000 -1.000000 0.000000
s 1
g Pillar1
usemtl initialShadingGroup
f 57/73/1 58/74/2 2/76/3
f 2/76/3 58/74/2 8/75/4
s 2
f 10/1/5 11/2/6 4/4/7
f 4/4/7 11/2/6 6/3/8
s 3
f 12/21/9 9/22/10 5/24/11
f 5/24/11 9/22/10 3/23/12
s 4
f 10/107/13 66/108/14 14/109/15
s 2
f 14/5/16 15/6/17 10/1/5
f 10/1/5 15/6/17 11/2/6
s 6
f 65/143/18 11/144/19 15/145/20
s 3
f 16/25/21 13/26/22 12/21/9
f 12/21/9 13/26/22 9/22/10
s 2
f 38/7/23 39/8/24 14/5/16
f 14/5/16 39/8/24 15/6/17
s 3
f 40/27/25 37/28/26 16/25/21
f 16/25/21 37/28/26 13/26/22
s 10
f 15/145/27 39/148/28 65/143/29
f 65/143/29 39/148/28 64/149/30
s 11
f 67/112/31 38/113/32 66/108/33
f 66/108/33 38/113/32 14/109/34
f 72/133/35 57/138/36 18/134/37
f 18/134/37 57/138/36 2/139/38
s 2
f 2/19/39 8/20/40 18/17/41
f 18/17/41 8/20/40 19/18/42
s 10
f 59/169/43 19/170/44 58/174/45
f 58/174/45 19/170/44 8/175/46
s 3
f 7/39/47 1/40/48 20/37/49
f 20/37/49 1/40/48 17/38/50
s 11
f 22/131/51 71/130/52 18/134/37
f 18/134/37 71/130/52 72/133/35
s 2
f 18/17/41 19/18/42 22/15/53
f 22/15/53 19/18/42 23/16/54
s 10
f 59/169/43 60/166/55 19/170/44
f 19/170/44 60/166/55 23/167/56
s 3
f 20/37/49 17/38/50 24/35/57
f 24/35/57 17/38/50 21/36/58
s 11
f 26/126/59 70/125/60 22/131/51
f 22/131/51 70/125/60 71/130/52
s 2
f 22/15/53 23/16/54 26/13/61
f 26/13/61 23/16/54 27/14/62
s 10
f 60/166/55 61/161/63 23/167/56
f 23/167/56 61/161/63 27/162/64
s 3
f 24/35/57 21/36/58 28/33/65
f 28/33/65 21/36/58 25/34/66
s 11
f 30/123/67 69/122/68 26/126/59
f 26/126/59 69/122/68 70/125/60
s 2
f 26/13/61 27/14/62 30/11/69
f 30/11/69 27/14/62 31/12/70
s 10
f 61/161/63 62/158/71 27/162/64
f 27/162/64 62/158/71 31/159/72
s 3
f 28/33/65 25/34/66 32/31/73
f 32/31/73 25/34/66 29/32/74
s 11
f 34/118/75 68/117/76 30/123/67
f 30/123/67 68/117/76 69/122/68
s 2
f 30/11/69 31/12/70 34/9/77
f 34/9/77 31/12/70 35/10/78
s 10
f 62/158/71 63/153/79 31/159/72
f 31/159/72 63/153/79 35/154/80
s 3
f 32/31/73 29/32/74 36/29/81
f 36/29/81 29/32/74 33/30/82
s 11
f 38/113/32 67/112/31 34/118/75
f 34/118/75 67/112/31 68/117/76
s 2
f 34/9/77 35/10/78 38/7/23
f 38/7/23 35/10/78 39/8/24
s 10
f 63/153/79 64/149/30 35/154/80
f 35/154/80 64/149/30 39/148/28
s 3
f 36/29/81 33/30/82 40/27/25
f 40/27/25 33/30/82 37/28/26
s 20
f 7/77/83 42/78/84 1/80/85
f 1/80/85 42/78/84 41/79/86
s 10
f 43/173/87 42/177/88 20/176/89
f 20/176/89 42/177/88 7/178/90
f 24/172/91 44/171/92 20/176/89
f 20/176/89 44/171/92 43/173/87
f 28/168/93 45/165/94 24/172/91
f 24/172/91 45/165/94 44/171/92
f 32/164/95 46/163/96 28/168/93
f 28/168/93 46/163/96 45/165/94
f 36/160/97 47/157/98 32/164/95
f 32/164/95 47/157/98 46/163/96
f 40/156/99 48/155/100 36/160/97
f 36/160/97 48/155/100 47/157/98
f 48/155/100 40/156/99 49/146/101
f 49/146/101 40/156/99 16/150/102
s 6
f 12/147/103 49/146/104 16/150/105
s 4
f 13/114/106 50/111/107 9/110/108
s 11
f 13/114/109 37/119/110 50/111/111
f 50/111/111 37/119/110 51/120/112
f 52/121/113 51/120/112 33/124/114
f 33/124/114 51/120/112 37/119/110
f 53/127/115 52/121/113 29/128/116
f 29/128/116 52/121/113 33/124/114
f 54/129/117 53/127/115 25/132/118
f 25/132/118 53/127/115 29/128/116
f 55/135/119 54/129/117 21/136/120
f 21/136/120 54/129/117 25/132/118
f 56/137/121 55/135/119 17/140/122
f 17/140/122 55/135/119 21/136/120
f 56/137/121 17/140/122 41/141/123
f 41/141/123 17/140/122 1/142/124
s 10
f 43/173/87 44/171/92 59/169/43
f 59/169/43 44/171/92 60/166/55
f 45/165/94 46/163/96 61/161/63
f 61/161/63 46/163/96 62/158/71
f 47/157/98 48/155/100 63/153/79
f 63/153/79 48/155/100 64/149/30
s 6
f 49/146/104 12/147/103 65/143/18
f 65/143/18 12/147/103 11/144/19
f 12/147/103 5/151/125 11/144/19
f 11/144/19 5/151/125 6/152/126
s 33
f 5/81/127 3/82/128 6/84/129
f 6/84/129 3/82/128 4/83/130
s 4
f 3/115/131 9/110/108 4/116/132
f 4/116/132 9/110/108 10/107/13
f 9/110/108 50/111/107 10/107/13
f 10/107/13 50/111/107 66/108/14
s 11
f 68/117/76 67/112/31 52/121/113
f 52/121/113 67/112/31 51/120/112
f 70/125/60 69/122/68 54/129/117
f 54/129/117 69/122/68 53/127/115
f 72/133/35 71/130/52 56/137/121
f 56/137/121 71/130/52 55/135/119
s 35
f 55/64/133 71/59/134 44/61/135
f 44/61/135 71/59/134 60/58/136
s 36
f 53/85/137 69/86/138 46/88/139
f 46/88/139 69/86/138 62/87/140
s 37
f 51/89/141 67/90/142 48/92/143
f 48/92/143 67/90/142 64/91/144
s 38
f 70/93/145 54/63/146 61/94/147
f 61/94/147 54/63/146 45/62/148
s 39
f 72/95/149 56/96/150 59/98/151
f 59/98/151 56/96/150 43/97/152
s 40
f 68/99/153 52/100/154 63/102/155
f 63/102/155 52/100/154 47/101/156
s 41
f 48/41/157 49/42/158 51/44/159
f 51/44/159 49/42/158 50/43/160
s 42
f 65/45/161 64/46/162 66/48/163
f 66/48/163 64/46/162 67/47/164
s 43
f 63/49/165 62/50/166 68/52/167
f 68/52/167 62/50/166 69/51/168
s 44
f 46/53/169 47/54/170 53/56/171
f 53/56/171 47/54/170 52/55/172
s 45
f 61/57/173 60/58/174 70/60/175
f 70/60/175 60/58/174 71/59/176
s 46
f 44/61/177 45/62/178 55/64/179
f 55/64/179 45/62/178 54/63/180
s 47
f 59/65/181 58/66/182 72/68/183
f 72/68/183 58/66/182 57/67/184
s 48
f 42/69/185 43/70/186 41/72/187
f 41/72/187 43/70/186 56/71/188
s 49
f 66/103/189 50/104/190 65/106/191
f 65/106/191 50/104/190 49/105/192
