# This file uses meters as units for non-parametric coordinates.

mtllib RightPillar.mtl
g default
v 169.825531 -2.533587 424.811562
v 261.018494 -2.533587 424.811562
v 112.881294 597.466492 424.811562
v 317.962769 597.466492 424.811562
v 112.881294 597.466492 333.618584
v 317.962769 597.466492 333.618584
v 169.825531 -2.533587 333.618576
v 261.018494 -2.533587 333.618576
v 112.881294 516.256104 424.811562
v 317.962769 516.256104 424.811562
v 317.962769 516.256287 333.618576
v 112.881294 516.256287 333.618576
v 169.825531 444.477448 424.811562
v 261.018494 444.477448 424.811562
v 261.018494 444.477448 333.618576
v 169.825531 444.477448 333.618576
v 169.825531 61.325420 424.811562
v 261.018494 61.325420 424.811562
v 261.018494 61.325439 333.618576
v 169.825531 61.325439 333.618576
v 169.825531 125.184212 424.811562
v 261.018494 125.184212 424.811562
v 261.018494 125.184212 333.618576
v 169.825531 125.184212 333.618576
v 169.825531 189.042923 424.811562
v 261.018494 189.042923 424.811562
v 261.018494 189.042923 333.618576
v 169.825531 189.042923 333.618576
v 169.825531 252.901688 424.811562
v 261.018494 252.901688 424.811562
v 261.018494 252.901688 333.618576
v 169.825531 252.901688 333.618576
v 169.825531 316.760101 424.811562
v 261.018494 316.760101 424.811562
v 261.018494 316.760101 333.618576
v 169.825531 316.760101 333.618576
v 169.825531 380.618866 424.811562
v 261.018494 380.618866 424.811562
v 261.018494 380.618866 333.618576
v 169.825531 380.618866 333.618576
v 191.940842 -2.533526 424.811562
v 191.940842 -2.533526 333.618576
v 191.940842 79.862350 333.618576
v 191.940842 106.647720 333.618576
v 191.940842 207.579498 333.618576
v 191.940842 234.365051 333.618576
v 191.940842 335.296600 333.618576
v 191.940842 362.082184 333.618576
v 191.940842 444.477448 333.618576
v 191.940842 444.477448 424.811562
v 191.940842 362.082184 424.811562
v 191.940842 335.296600 424.811562
v 191.940842 234.365051 424.811562
v 191.940842 207.579498 424.811562
v 191.940842 106.647690 424.811562
v 191.940842 79.862320 424.811562
v 238.903183 -2.533526 424.811562
v 238.903183 -2.533526 333.618576
v 238.903183 79.862350 333.618576
v 238.903183 106.647720 333.618576
v 238.903183 207.579498 333.618576
v 238.903183 234.365051 333.618576
v 238.903183 335.296600 333.618576
v 238.903183 362.082184 333.618576
v 238.903183 444.477448 333.618576
v 238.903183 444.477448 424.811562
v 238.903183 362.082184 424.811562
v 238.903183 335.296600 424.811562
v 238.903183 234.365051 424.811562
v 238.903183 207.579498 424.811562
v 238.903183 106.647690 424.811562
v 238.903183 79.862320 424.811562
v 262.224060 -1.909136 357.694092
v 265.441284 -1.909136 356.648758
v 265.441284 -1.909136 353.265992
v 262.224060 -1.909136 352.220658
v 260.235748 -1.909136 354.957375
v 262.914429 444.091888 357.694092
v 266.131592 444.091888 356.648758
v 266.131592 444.091888 353.265992
v 262.914429 444.091888 352.220658
v 260.926086 444.091888 354.957375
v 263.113281 -1.909136 354.957375
v 319.620544 515.263428 357.694092
v 322.234314 512.307678 356.648758
v 322.234314 512.307678 353.265992
v 319.620544 515.263428 352.220658
v 318.005188 517.090149 354.957375
v 319.385071 600.624023 357.694092
v 322.599670 600.774475 356.648758
v 321.265656 600.666199 354.957375
v 322.599670 600.774475 353.265992
v 319.385071 600.624023 352.220658
v 317.398438 600.531189 354.957375
vt 0.517869 0.670831
vt 0.631444 0.671594
vt 0.630764 0.772736
vt 0.517190 0.771973
vt 0.518636 0.556721
vt 0.632210 0.557484
vt 0.519170 0.477189
vt 0.632744 0.477952
vt 0.519705 0.397658
vt 0.633279 0.398421
vt 0.520239 0.318127
vt 0.633813 0.318890
vt 0.520773 0.238595
vt 0.634347 0.239358
vt 0.521307 0.159064
vt 0.634881 0.159827
vt 0.521841 0.079532
vt 0.635416 0.080295
vt 0.522376 0.000000
vt 0.635950 0.000763
vt 0.637221 0.670831
vt 0.750795 0.671594
vt 0.750116 0.772736
vt 0.636541 0.771973
vt 0.637987 0.556721
vt 0.751562 0.557484
vt 0.638522 0.477189
vt 0.752096 0.477952
vt 0.639056 0.397658
vt 0.752630 0.398421
vt 0.639591 0.318127
vt 0.753165 0.318890
vt 0.640125 0.238595
vt 0.753699 0.239358
vt 0.640659 0.159063
vt 0.754233 0.159826
vt 0.641193 0.079532
vt 0.754767 0.080295
vt 0.641728 0.000000
vt 0.755302 0.000763
vt 0.858667 0.000000
vt 0.961287 0.000000
vt 0.961287 0.113577
vt 0.858667 0.113577
vt 0.288278 0.113577
vt 0.185658 0.113577
vt 0.185658 0.000000
vt 0.288278 0.000000
vt 0.429806 0.772729
vt 0.555513 0.772733
vt 0.555509 0.886310
vt 0.429804 0.886306
vt 0.614003 0.772735
vt 0.739709 0.772740
vt 0.739704 0.886317
vt 0.613999 0.886312
vt 0.058490 0.747504
vt 0.184195 0.747507
vt 0.184197 0.861084
vt 0.058489 0.861081
vt 0.242681 0.747503
vt 0.368387 0.747492
vt 0.368397 0.861069
vt 0.242690 0.861080
vt 0.161110 0.861084
vt 0.263731 0.861084
vt 0.263731 0.974661
vt 0.161111 0.974661
vt 0.000000 0.861084
vt 0.102621 0.861084
vt 0.102621 0.974661
vt 0.000000 0.974661
vt 0.962899 0.000000
vt 0.967112 0.000008
vt 0.966069 0.555479
vt 0.961856 0.555471
vt 0.965862 0.665480
vt 0.961649 0.665472
vt 0.965656 0.775661
vt 0.961442 0.775654
vt 0.291275 0.861084
vt 0.291275 0.974661
vt 0.288433 0.000000
vt 0.315976 0.000000
vt 0.315976 0.113577
vt 0.288433 0.113577
vt 0.971527 0.885395
vt 0.971985 0.998971
vt 0.716567 1.000000
vt 0.716109 0.886424
vt 0.000000 0.000000
vt 0.058490 0.000000
vt 0.058490 0.113577
vt 0.000000 0.113577
vt 0.000000 0.861081
vt 0.000000 0.747504
vt 0.371316 0.886306
vt 0.371316 0.772729
vt 0.814382 0.113577
vt 0.755893 0.113577
vt 0.755893 0.000000
vt 0.814382 0.000000
vt 0.112573 0.005515
vt 0.108566 0.006817
vt 0.109674 0.003409
vt 0.106090 0.003409
vt 0.112573 0.001302
vt 0.108567 0.000000
vt 0.101936 0.000000
vt 0.105945 0.001301
vt 0.104279 0.003408
vt 0.105946 0.005514
vt 0.099460 0.003410
vt 0.101938 0.006818
vt 0.514015 0.646131
vt 0.415550 0.556733
vt 0.443093 0.556733
vt 0.258595 0.646131
vt 0.357060 0.556733
vt 0.415550 0.454114
vt 0.443093 0.477200
vt 0.329516 0.556733
vt 0.258595 0.747275
vt 0.514015 0.747275
vt 0.415550 0.420753
vt 0.443093 0.397667
vt 0.329516 0.477200
vt 0.357060 0.454114
vt 0.357060 0.420753
vt 0.415550 0.295047
vt 0.443093 0.318134
vt 0.329516 0.397667
vt 0.415550 0.261687
vt 0.443093 0.238601
vt 0.357060 0.295047
vt 0.329516 0.318134
vt 0.357060 0.261687
vt 0.415549 0.135981
vt 0.443093 0.159067
vt 0.329516 0.238601
vt 0.415549 0.102621
vt 0.443093 0.079534
vt 0.357060 0.135981
vt 0.329516 0.159067
vt 0.357060 0.102621
vt 0.415549 0.000000
vt 0.443093 0.000000
vt 0.329516 0.079534
vt 0.357060 0.000000
vt 0.329516 0.000000
vt 0.098354 0.556840
vt 0.000000 0.646360
vt 0.070810 0.556874
vt 0.156844 0.556767
vt 0.255420 0.646042
vt 0.070711 0.477341
vt 0.098226 0.454220
vt 0.184387 0.556733
vt 0.255546 0.747185
vt 0.000126 0.747504
vt 0.098184 0.420860
vt 0.070612 0.397808
vt 0.156716 0.454147
vt 0.184288 0.477199
vt 0.156674 0.420787
vt 0.098027 0.295154
vt 0.070513 0.318275
vt 0.184189 0.397666
vt 0.097986 0.261794
vt 0.070413 0.238742
vt 0.156517 0.295081
vt 0.184089 0.318133
vt 0.156475 0.261721
vt 0.097829 0.136088
vt 0.070314 0.159208
vt 0.183990 0.238600
vt 0.097787 0.102728
vt 0.070215 0.079675
vt 0.156319 0.136015
vt 0.183891 0.159067
vt 0.156277 0.102655
vt 0.097659 0.000107
vt 0.070116 0.000142
vt 0.183792 0.079533
vt 0.156149 0.000034
vt 0.183693 0.000000
vt 0.852938 0.058955
vt 0.857156 0.058953
vt 0.858255 0.614800
vt 0.854057 0.614588
vt 0.913879 0.709471
vt 0.910174 0.712942
vt 0.848722 0.058958
vt 0.849840 0.614812
vt 0.911737 0.819646
vt 0.907535 0.819362
vt 0.906274 0.715361
vt 0.903324 0.819143
vt 0.761003 0.757403
vt 0.756791 0.757210
vt 0.783284 0.202205
vt 0.787488 0.202186
vt 0.752577 0.757013
vt 0.779083 0.201789
vt 0.843844 0.106521
vt 0.847386 0.110157
vt 0.840058 0.103926
vt 0.846078 0.000091
vt 0.850287 0.000000
vt 0.841861 0.000118
vn -0.000003 -1.000000 0.000000
vn -0.000003 -1.000000 0.000000
vn -0.000003 -1.000000 0.000000
vn -0.000003 -1.000000 0.000000
vn 0.937186 -0.348831 -0.000001
vn 0.937186 -0.348831 -0.000001
vn 1.000000 0.000000 0.000000
vn 1.000000 0.000000 0.000000
vn -0.937186 -0.348831 -0.000000
vn -0.937186 -0.348832 -0.000001
vn -1.000000 -0.000000 0.000000
vn -1.000000 0.000000 0.000000
vn 0.000000 0.000000 1.000000
vn 0.000000 0.000000 1.000000
vn 0.000000 0.000000 1.000000
vn 0.922039 -0.387097 0.000000
vn 0.922039 -0.387097 -0.000001
vn 0.000000 0.000000 -1.000000
vn 0.000000 0.000000 -1.000000
vn 0.000000 0.000000 -1.000000
vn -0.922039 -0.387097 0.000000
vn -0.922039 -0.387097 -0.000000
vn 1.000000 0.000000 0.000000
vn 1.000000 0.000000 0.000000
vn -1.000000 0.000000 0.000000
vn -1.000000 0.000000 0.000000
vn 0.000000 0.000000 -1.000000
vn -0.000000 0.000000 -1.000000
vn 0.000000 0.000000 -1.000000
vn -0.000000 0.000000 -1.000000
vn 0.000000 0.000000 1.000000
vn 0.000000 0.000000 1.000000
vn 0.000000 0.000000 1.000000
vn 0.000000 0.000000 1.000000
vn 0.000000 0.000000 1.000000
vn -0.000000 0.000000 1.000000
vn 0.000000 0.000000 1.000000
vn -0.000000 0.000000 1.000000
vn 1.000000 0.000000 0.000000
vn 1.000000 0.000000 0.000000
vn 1.000000 0.000000 0.000000
vn 1.000000 0.000000 0.000000
vn -0.000000 0.000000 -1.000000
vn -0.000001 0.000000 -1.000000
vn -0.000000 0.000000 -1.000000
vn 0.000000 0.000000 -1.000000
vn -1.000000 0.000000 0.000000
vn -1.000000 0.000000 0.000000
vn -1.000000 0.000000 0.000000
vn -1.000000 0.000000 0.000000
vn -0.000000 0.000000 1.000000
vn -0.000000 0.000000 1.000000
vn 1.000000 0.000000 0.000000
vn 1.000000 0.000000 0.000000
vn -0.000000 0.000000 -1.000000
vn 0.000000 0.000000 -1.000000
vn -1.000000 0.000000 0.000000
vn -1.000000 0.000000 0.000000
vn 0.000000 0.000000 1.000000
vn 0.000000 0.000000 1.000000
vn 1.000000 0.000000 0.000000
vn 1.000000 0.000000 0.000000
vn -0.000000 0.000000 -1.000000
vn -0.000001 0.000000 -1.000000
vn -1.000000 0.000000 0.000000
vn -1.000000 0.000000 0.000000
vn -0.000000 0.000000 1.000000
vn -0.000000 0.000000 1.000000
vn 1.000000 0.000000 0.000000
vn 1.000000 0.000000 0.000000
vn -0.000000 0.000000 -1.000000
vn 0.000000 0.000000 -1.000000
vn -1.000000 0.000000 0.000000
vn -1.000000 0.000000 0.000000
vn 0.000000 0.000000 1.000000
vn 0.000000 0.000000 1.000000
vn 1.000000 0.000000 0.000000
vn 1.000000 0.000000 0.000000
vn 0.000000 0.000000 -1.000000
vn -0.000000 0.000000 -1.000000
vn -1.000000 0.000000 0.000000
vn -1.000000 0.000000 0.000000
vn 0.000003 -1.000000 0.000000
vn 0.000003 -1.000000 0.000000
vn 0.000003 -1.000000 0.000000
vn 0.000003 -1.000000 0.000000
vn -0.000000 0.000000 -1.000000
vn 0.000000 0.000000 -1.000000
vn 0.000000 0.000000 -1.000000
vn 0.000000 0.000000 -1.000000
vn -0.000000 0.000000 -1.000000
vn 0.000000 0.000000 -1.000000
vn 0.000001 0.000000 -1.000000
vn 0.000000 0.000000 -1.000000
vn 0.000000 0.000000 -1.000000
vn 0.000000 0.000000 -1.000000
vn 0.000000 0.000000 -1.000000
vn -0.000000 0.000000 -1.000000
vn 0.000000 0.000000 -1.000000
vn 0.000000 0.000000 -1.000000
vn 0.000000 0.000000 -1.000000
vn 0.000000 0.000000 -1.000000
vn 0.000000 0.000000 -1.000000
vn 0.000000 0.000000 -1.000000
vn 0.000000 0.000000 -1.000000
vn 0.000000 0.000000 1.000000
vn 0.000000 0.000000 1.000000
vn 0.000000 0.000000 1.000000
vn 0.000000 0.000000 1.000000
vn 0.000000 0.000000 1.000000
vn 0.000000 0.000000 1.000000
vn 0.000000 0.000000 1.000000
vn -0.000000 0.000000 1.000000
vn -0.000000 0.000000 1.000000
vn 0.000000 0.000000 1.000000
vn 0.000000 0.000000 1.000000
vn -0.000000 0.000000 1.000000
vn -0.000000 0.000000 1.000000
vn 0.000000 0.000000 1.000000
vn 0.000000 0.000000 1.000000
vn 0.000000 0.000000 1.000000
vn 0.000000 0.000000 1.000000
vn 0.000000 0.000000 1.000000
vn 0.000000 0.000000 1.000000
vn 0.000000 0.000000 -1.000000
vn 0.000000 0.000000 -1.000000
vn 0.000000 1.000000 0.000000
vn 0.000000 1.000000 0.000000
vn 0.000000 1.000000 0.000000
vn 0.000000 1.000000 0.000000
vn 0.000000 0.000000 1.000000
vn 0.000000 0.000000 1.000000
vn 0.000000 1.000000 0.000000
vn 0.000000 1.000000 0.000000
vn 0.000000 1.000000 0.000000
vn 0.000000 1.000000 0.000000
vn 0.000000 1.000000 0.000000
vn 0.000000 1.000000 0.000000
vn 0.000000 1.000000 0.000000
vn 0.000000 1.000000 0.000000
vn 0.000000 1.000000 0.000000
vn 0.000000 1.000000 0.000000
vn 0.000000 1.000000 0.000000
vn 0.000000 1.000000 0.000000
vn 0.000000 -1.000000 0.000000
vn 0.000000 -1.000000 0.000000
vn 0.000000 -1.000000 0.000000
vn 0.000000 -1.000000 0.000000
vn 0.000000 -1.000000 -0.000000
vn 0.000000 -1.000000 -0.000000
vn 0.000000 -1.000000 -0.000000
vn 0.000000 -1.000000 -0.000000
vn 0.000000 -1.000000 0.000000
vn 0.000000 -1.000000 0.000000
vn 0.000000 -1.000000 0.000000
vn 0.000000 -1.000000 0.000000
vn 1.000000 0.000000 0.000000
vn 1.000000 0.000000 0.000000
vn 1.000000 0.000000 0.000000
vn 1.000000 0.000000 0.000000
vn -1.000000 0.000000 0.000000
vn -1.000000 0.000000 0.000000
vn -1.000000 0.000000 0.000000
vn -1.000000 0.000000 0.000000
vn -1.000000 0.000000 0.000000
vn -1.000000 0.000000 0.000000
vn -1.000000 0.000000 0.000000
vn -1.000000 0.000000 0.000000
vn 1.000000 0.000000 0.000000
vn 1.000000 0.000000 0.000000
vn 1.000000 0.000000 0.000000
vn 1.000000 0.000000 0.000000
vn -1.000000 0.000000 0.000000
vn -1.000000 0.000000 0.000000
vn -1.000000 0.000000 0.000000
vn -1.000000 0.000000 0.000000
vn 1.000000 0.000000 0.000000
vn 1.000000 0.000000 0.000000
vn 1.000000 0.000000 0.000000
vn 1.000000 0.000000 0.000000
vn -1.000000 0.000000 0.000000
vn -1.000000 0.000000 0.000000
vn -1.000000 0.000000 0.000000
vn -1.000000 0.000000 0.000000
vn 1.000000 0.000000 0.000000
vn 1.000000 0.000000 0.000000
vn 1.000000 0.000000 0.000000
vn 1.000000 0.000000 0.000000
vn 0.000000 -1.000000 0.000000
vn 0.000000 -1.000000 0.000000
vn 0.000000 -1.000000 0.000000
vn 0.000000 -1.000000 0.000000
vn 0.309015 -0.000478 0.951057
vn 0.309015 -0.000478 0.951057
vn 0.309020 -0.000478 0.951056
vn 0.309020 -0.000478 0.951055
vn 0.999999 -0.001548 0.000000
vn 0.999999 -0.001548 0.000000
vn 0.999999 -0.001548 0.000000
vn 0.999999 -0.001548 0.000000
vn 0.309015 -0.000478 -0.951057
vn 0.309015 -0.000478 -0.951057
vn 0.309020 -0.000478 -0.951056
vn 0.309020 -0.000478 -0.951056
vn -0.809021 0.001252 -0.587779
vn -0.809020 0.001252 -0.587779
vn -0.809016 0.001252 -0.587785
vn -0.809016 0.001252 -0.587785
vn -0.809020 0.001252 0.587779
vn -0.809020 0.001252 0.587779
vn -0.809016 0.001252 0.587785
vn -0.809016 0.001252 0.587785
vn 0.000000 -1.000000 0.000000
vn 0.000000 -1.000000 -0.000000
vn 0.000000 -1.000000 -0.000000
vn 0.000000 -1.000000 -0.000000
vn 0.000000 -1.000000 -0.000000
vn 0.000000 -1.000000 -0.000000
vn -0.039710 0.999140 -0.011912
vn -0.060990 0.998014 -0.015745
vn -0.050164 0.998741 -0.000000
vn -0.060990 0.998014 0.015745
vn -0.039711 0.999140 0.011912
vn -0.034890 0.999391 0.000000
vn 0.300060 -0.239075 0.923476
vn 0.297226 -0.236967 0.924934
vn 0.201688 -0.165757 0.965322
vn 0.200135 -0.164597 0.965844
vn 0.772348 -0.635200 0.000000
vn 0.772348 -0.635200 0.000000
vn 0.772346 -0.635201 0.000000
vn 0.772346 -0.635202 0.000000
vn 0.300061 -0.239073 -0.923476
vn 0.201688 -0.165756 -0.965322
vn 0.297228 -0.236965 -0.924934
vn 0.200135 -0.164596 -0.965844
vn -0.683701 0.534603 -0.496743
vn -0.590109 0.469957 -0.656439
vn -0.681793 0.533312 -0.500736
vn -0.587850 0.468371 -0.659591
vn -0.683699 0.534601 0.496747
vn -0.681791 0.533311 0.500740
vn -0.590106 0.469956 0.656442
vn -0.587848 0.468370 0.659594
vn 0.369847 -0.001527 0.929092
vn 0.310363 0.000808 0.950618
vn 0.368703 -0.001482 0.929546
vn 0.309208 0.000853 0.950994
vn 0.999991 -0.004130 0.000000
vn 0.999992 -0.004130 0.000000
vn 0.999991 -0.004130 0.000000
vn 0.999991 -0.004130 0.000000
vn 0.369845 -0.001527 -0.929092
vn 0.368702 -0.001482 -0.929547
vn 0.310362 0.000808 -0.950618
vn 0.309207 0.000853 -0.950994
vn -0.861865 -0.002377 -0.507132
vn -0.860884 -0.002448 -0.508795
vn -0.810480 -0.005802 -0.585738
vn -0.809147 -0.005884 -0.587577
vn -0.861867 -0.002377 0.507129
vn -0.810479 -0.005802 0.585738
vn -0.860886 -0.002448 0.508791
vn -0.809146 -0.005884 0.587578
s 1
g RightPillar
usemtl initialShadingGroup
f 57/67/1 58/66/2 2/82/3
f 2/82/3 58/66/2 8/81/4
s 2
f 10/1/5 11/2/6 4/4/7
f 4/4/7 11/2/6 6/3/8
s 3
f 12/21/9 9/22/10 5/24/11
f 5/24/11 9/22/10 3/23/12
s 4
f 10/115/13 66/116/14 14/117/15
s 2
f 14/5/16 15/6/17 10/1/5
f 10/1/5 15/6/17 11/2/6
s 6
f 65/151/18 11/152/19 15/153/20
s 3
f 16/25/21 13/26/22 12/21/9
f 12/21/9 13/26/22 9/22/10
s 2
f 38/7/23 39/8/24 14/5/16
f 14/5/16 39/8/24 15/6/17
s 3
f 40/27/25 37/28/26 16/25/21
f 16/25/21 37/28/26 13/26/22
s 10
f 15/153/27 39/156/28 65/151/29
f 65/151/29 39/156/28 64/157/30
s 11
f 67/120/31 38/121/32 66/116/33
f 66/116/33 38/121/32 14/117/34
f 72/141/35 57/146/36 18/142/37
f 18/142/37 57/146/36 2/147/38
s 2
f 2/19/39 8/20/40 18/17/41
f 18/17/41 8/20/40 19/18/42
s 10
f 59/177/43 19/178/44 58/182/45
f 58/182/45 19/178/44 8/183/46
s 3
f 7/39/47 1/40/48 20/37/49
f 20/37/49 1/40/48 17/38/50
s 11
f 22/139/51 71/138/52 18/142/37
f 18/142/37 71/138/52 72/141/35
s 2
f 18/17/41 19/18/42 22/15/53
f 22/15/53 19/18/42 23/16/54
s 10
f 59/177/43 60/174/55 19/178/44
f 19/178/44 60/174/55 23/175/56
s 3
f 20/37/49 17/38/50 24/35/57
f 24/35/57 17/38/50 21/36/58
s 11
f 26/134/59 70/133/60 22/139/51
f 22/139/51 70/133/60 71/138/52
s 2
f 22/15/53 23/16/54 26/13/61
f 26/13/61 23/16/54 27/14/62
s 10
f 60/174/55 61/169/63 23/175/56
f 23/175/56 61/169/63 27/170/64
s 3
f 24/35/57 21/36/58 28/33/65
f 28/33/65 21/36/58 25/34/66
s 11
f 30/131/67 69/130/68 26/134/59
f 26/134/59 69/130/68 70/133/60
s 2
f 26/13/61 27/14/62 30/11/69
f 30/11/69 27/14/62 31/12/70
s 10
f 61/169/63 62/166/71 27/170/64
f 27/170/64 62/166/71 31/167/72
s 3
f 28/33/65 25/34/66 32/31/73
f 32/31/73 25/34/66 29/32/74
s 11
f 34/126/75 68/125/76 30/131/67
f 30/131/67 68/125/76 69/130/68
s 2
f 30/11/69 31/12/70 34/9/77
f 34/9/77 31/12/70 35/10/78
s 10
f 62/166/71 63/161/79 31/167/72
f 31/167/72 63/161/79 35/162/80
s 3
f 32/31/73 29/32/74 36/29/81
f 36/29/81 29/32/74 33/30/82
s 11
f 38/121/32 67/120/31 34/126/75
f 34/126/75 67/120/31 68/125/76
s 2
f 34/9/77 35/10/78 38/7/23
f 38/7/23 35/10/78 39/8/24
s 10
f 63/161/79 64/157/30 35/162/80
f 35/162/80 64/157/30 39/156/28
s 3
f 36/29/81 33/30/82 40/27/25
f 40/27/25 33/30/82 37/28/26
s 20
f 7/83/83 42/84/84 1/86/85
f 1/86/85 42/84/84 41/85/86
s 10
f 43/181/87 42/185/88 20/184/89
f 20/184/89 42/185/88 7/186/90
f 24/180/91 44/179/92 20/184/89
f 20/184/89 44/179/92 43/181/87
f 28/176/93 45/173/94 24/180/91
f 24/180/91 45/173/94 44/179/92
f 32/172/95 46/171/96 28/176/93
f 28/176/93 46/171/96 45/173/94
f 36/168/97 47/165/98 32/172/95
f 32/172/95 47/165/98 46/171/96
f 40/164/99 48/163/100 36/168/97
f 36/168/97 48/163/100 47/165/98
f 48/163/100 40/164/99 49/154/101
f 49/154/101 40/164/99 16/158/102
s 6
f 12/155/103 49/154/104 16/158/105
s 4
f 13/122/106 50/119/107 9/118/108
s 11
f 13/122/109 37/127/110 50/119/111
f 50/119/111 37/127/110 51/128/112
f 52/129/113 51/128/112 33/132/114
f 33/132/114 51/128/112 37/127/110
f 53/135/115 52/129/113 29/136/116
f 29/136/116 52/129/113 33/132/114
f 54/137/117 53/135/115 25/140/118
f 25/140/118 53/135/115 29/136/116
f 55/143/119 54/137/117 21/144/120
f 21/144/120 54/137/117 25/140/118
f 56/145/121 55/143/119 17/148/122
f 17/148/122 55/143/119 21/144/120
f 56/145/121 17/148/122 41/149/123
f 41/149/123 17/148/122 1/150/124
s 10
f 43/181/87 44/179/92 59/177/43
f 59/177/43 44/179/92 60/174/55
f 45/173/94 46/171/96 61/169/63
f 61/169/63 46/171/96 62/166/71
f 47/165/98 48/163/100 63/161/79
f 63/161/79 48/163/100 64/157/30
s 6
f 49/154/104 12/155/103 65/151/18
f 65/151/18 12/155/103 11/152/19
f 12/155/103 5/159/125 11/152/19
f 11/152/19 5/159/125 6/160/126
s 33
f 5/87/127 3/88/128 6/90/129
f 6/90/129 3/88/128 4/89/130
s 4
f 3/123/131 9/118/108 4/124/132
f 4/124/132 9/118/108 10/115/13
f 9/118/108 50/119/107 10/115/13
f 10/115/13 50/119/107 66/116/14
s 11
f 68/125/76 67/120/31 52/129/113
f 52/129/113 67/120/31 51/128/112
f 70/133/60 69/130/68 54/137/117
f 54/137/117 69/130/68 53/135/115
f 72/141/35 71/138/52 56/145/121
f 56/145/121 71/138/52 55/143/119
s 35
f 55/64/133 71/59/134 44/61/135
f 44/61/135 71/59/134 60/58/136
s 36
f 53/56/137 69/51/138 46/53/139
f 46/53/139 69/51/138 62/50/140
s 37
f 51/91/141 67/92/142 48/94/143
f 48/94/143 67/92/142 64/93/144
s 38
f 70/60/145 54/95/146 61/57/147
f 61/57/147 54/95/146 45/96/148
s 39
f 72/68/149 56/71/150 59/65/151
f 59/65/151 56/71/150 43/70/152
s 40
f 68/52/153 52/97/154 63/49/155
f 63/49/155 52/97/154 47/98/156
s 41
f 48/41/157 49/42/158 51/44/159
f 51/44/159 49/42/158 50/43/160
s 42
f 65/45/161 64/46/162 66/48/163
f 66/48/163 64/46/162 67/47/164
s 43
f 63/49/165 62/50/166 68/52/167
f 68/52/167 62/50/166 69/51/168
s 44
f 46/53/169 47/54/170 53/56/171
f 53/56/171 47/54/170 52/55/172
s 45
f 61/57/173 60/58/174 70/60/175
f 70/60/175 60/58/174 71/59/176
s 46
f 44/61/177 45/62/178 55/64/179
f 55/64/179 45/62/178 54/63/180
s 47
f 59/65/181 58/66/182 72/68/183
f 72/68/183 58/66/182 57/67/184
s 48
f 42/69/185 43/70/186 41/72/187
f 41/72/187 43/70/186 56/71/188
s 49
f 66/99/189 50/100/190 65/102/191
f 65/102/191 50/100/190 49/101/192
s 50
f 73/187/193 74/188/194 78/190/195
f 78/190/195 74/188/194 79/189/196
s 51
f 74/73/197 75/74/198 79/76/199
f 79/76/199 75/74/198 80/75/200
s 52
f 75/199/201 76/200/202 80/202/203
f 80/202/203 76/200/202 81/201/204
s 53
f 76/200/205 77/203/206 81/201/207
f 81/201/207 77/203/206 82/204/208
s 54
f 77/193/209 73/187/210 82/194/211
f 82/194/211 73/187/210 78/190/212
s 55
f 74/103/213 73/104/214 83/105/215
f 75/107/216 74/103/213 83/105/215
f 76/108/217 75/107/216 83/105/215
f 77/106/218 76/108/217 83/105/215
f 73/104/214 77/106/218 83/105/215
s 56
f 89/109/219 90/110/220 91/111/221
f 90/110/220 92/112/222 91/111/221
f 92/112/222 93/114/223 91/111/221
f 93/114/223 94/113/224 91/111/221
f 94/113/224 89/109/219 91/111/221
s 57
f 78/190/225 79/189/226 84/192/227
f 84/192/227 79/189/226 85/191/228
s 58
f 79/76/229 80/75/230 85/78/231
f 85/78/231 80/75/230 86/77/232
s 59
f 81/201/233 87/205/234 80/202/235
f 80/202/235 87/205/234 86/206/236
s 60
f 82/204/237 88/207/238 81/201/239
f 81/201/239 88/207/238 87/205/240
s 61
f 82/194/241 78/190/242 88/197/243
f 88/197/243 78/190/242 84/192/244
s 62
f 85/191/245 90/195/246 84/192/247
f 84/192/247 90/195/246 89/196/248
s 63
f 85/78/249 86/77/250 90/80/251
f 90/80/251 86/77/250 92/79/252
s 64
f 86/206/253 87/205/254 92/209/255
f 92/209/255 87/205/254 93/208/256
s 65
f 87/205/257 88/207/258 93/208/259
f 93/208/259 88/207/258 94/210/260
s 66
f 84/192/261 89/196/262 88/197/263
f 88/197/263 89/196/262 94/198/264
