# This file uses meters as units for non-parametric coordinates.

mtllib Tr_BendPipe.mtl
g default
v 14.649050 15.668732 -25.615240
v -15.350828 15.668732 -25.615240
v -30.351072 15.668732 0.365717
v -15.350828 15.668732 26.346674
v 14.649050 15.668732 26.346674
v 29.649050 15.668732 0.365717
v 14.649050 55.668732 -25.615240
v -15.350828 55.668732 -25.615240
v -30.351072 55.668732 0.365717
v -15.350828 55.668732 26.346674
v 14.649050 55.668732 26.346674
v 29.649050 55.668732 0.365717
v 99.649050 143.855316 -25.615240
v 99.649050 113.855347 -25.615240
v 99.649050 98.855316 0.365717
v 99.649050 113.855347 26.346674
v 99.649050 143.855316 26.346674
v 99.649050 158.855316 0.365717
v 59.649172 143.855316 -25.615240
v 59.649172 113.855347 -25.615240
v 59.649172 98.855316 0.365717
v 59.649172 113.855347 26.346674
v 59.649172 143.855316 26.346674
v 59.649172 158.855316 0.365717
v -14.990598 73.108887 -25.615240
v -29.970091 73.643127 0.365717
v -14.990598 73.108887 26.346674
v 14.968508 72.040405 26.346674
v 29.948244 71.506165 0.365717
v 14.968508 72.040405 -25.615240
v -12.544554 91.895630 -25.615240
v -27.226072 94.656891 0.365717
v -12.544554 91.895630 26.346674
v 16.819094 86.372986 26.346674
v 31.500735 83.611664 0.365717
v 16.819094 86.372986 -25.615240
v -6.067259 110.714874 -25.615240
v -19.413084 117.214355 0.365717
v -6.067259 110.714874 26.346674
v 20.625124 97.715698 26.346674
v 33.971071 91.216095 0.365717
v 20.625124 97.715698 -25.615240
v 5.968874 127.241882 -25.615240
v -4.015623 138.109192 0.365717
v 5.968874 127.241882 26.346674
v 25.938723 105.506897 26.346674
v 35.923464 94.639465 0.365717
v 25.938723 105.506897 -25.615240
v 23.110964 138.418701 -25.615240
v 18.130007 152.378326 0.365717
v 23.110964 138.418701 26.346674
v 33.072390 110.499298 26.346674
v 38.053347 96.539673 0.365717
v 33.072390 110.499298 -25.615240
v 42.028445 143.134369 -25.615240
v 41.006472 158.060303 0.365717
v 42.028445 143.134369 26.346674
v 44.071413 113.282501 26.346674
v 45.093264 98.356567 0.365717
v 44.071413 113.282501 -25.615240
v 18.819704 -0.000000 -32.596197
v -18.819334 -0.000000 -32.596197
v -37.638670 -0.000000 -0.000005
v -18.819334 -0.000000 32.596186
v 18.819704 -0.000000 32.596186
v 37.638918 -0.000000 -0.000005
v 18.819704 27.609695 -32.596197
v -18.819334 27.609695 -32.596197
v -37.638670 27.609695 -0.000005
v -18.819334 27.609695 32.596186
v 18.819704 27.609695 32.596186
v 37.638918 27.609695 -0.000005
v 0.000002 -0.000000 -0.000005
v 0.000002 27.609695 -0.000005
v 117.139284 148.817566 -32.596197
v 117.139284 111.178741 -32.596197
v 117.139284 92.359314 -0.000005
v 117.139284 111.178711 32.596186
v 117.139284 148.817535 32.596186
v 117.139284 167.636963 -0.000005
v 89.529665 148.817566 -32.596197
v 89.529665 111.178741 -32.596197
v 89.529665 92.359314 -0.000005
v 89.529665 111.178711 32.596186
v 89.529665 148.817535 32.596186
v 89.529665 167.636963 -0.000005
v 117.139284 129.998169 -0.000005
v 89.529665 129.998169 -0.000005
vt 0.573272 0.262178
vt 0.670889 0.255947
vt 0.682227 0.388727
vt 0.584089 0.392614
vt 0.767063 0.245728
vt 0.779983 0.374603
vt 0.687306 0.442341
vt 0.587674 0.444617
vt 0.785655 0.426368
vt 0.691316 0.484188
vt 0.590933 0.489826
vt 0.790465 0.471406
vt 0.693461 0.511769
vt 0.594657 0.527106
vt 0.794222 0.508592
vt 0.694742 0.525112
vt 0.600075 0.556709
vt 0.794247 0.538683
vt 0.695630 0.534520
vt 0.609816 0.583496
vt 0.789597 0.566809
vt 0.381313 0.132275
vt 0.481187 0.132886
vt 0.478829 0.190072
vt 0.379997 0.191583
vt 0.386291 0.000000
vt 0.485906 0.002280
vt 0.580412 0.140248
vt 0.577121 0.199442
vt 0.476163 0.256575
vt 0.378850 0.256796
vt 0.586093 0.007234
vt 0.573129 0.264512
vt 0.473193 0.331394
vt 0.377481 0.325345
vt 0.569081 0.332938
vt 0.469918 0.414182
vt 0.370312 0.394330
vt 0.570779 0.402269
vt 0.243415 0.346733
vt 0.242772 0.222938
vt 0.333581 0.222465
vt 0.334224 0.346260
vt 0.242127 0.099144
vt 0.332936 0.098672
vt 0.377434 1.000000
vt 0.377434 0.876204
vt 0.468244 0.876204
vt 0.468244 1.000000
vt 0.377434 0.752408
vt 0.468244 0.752408
vt 0.417381 0.605305
vt 0.417381 0.729101
vt 0.310171 0.667203
vt 0.310171 0.791000
vt 0.310171 0.543406
vt 0.202960 0.729101
vt 0.202960 0.605305
vt 0.423723 0.725691
vt 0.423723 0.601895
vt 0.530934 0.663793
vt 0.530934 0.539997
vt 0.530934 0.787589
vt 0.638145 0.601894
vt 0.638145 0.725691
vt 0.783353 0.194416
vt 0.881637 0.192877
vt 0.885241 0.325188
vt 0.786436 0.325577
vt 0.979217 0.189108
vt 0.984245 0.319450
vt 0.886787 0.373670
vt 0.787396 0.376200
vt 0.986309 0.370049
vt 0.887536 0.397881
vt 0.791044 0.412883
vt 0.984903 0.406891
vt 0.000000 0.492755
vt 0.099812 0.489659
vt 0.101361 0.619903
vt 0.001629 0.625401
vt 0.200647 0.490411
vt 0.200595 0.624182
vt 0.101614 0.678555
vt 0.004019 0.686035
vt 0.199148 0.684793
vt 0.102061 0.752095
vt 0.006127 0.753530
vt 0.197978 0.752268
vt 0.102628 0.837116
vt 0.003343 0.821827
vt 0.201693 0.820505
vt 0.640925 0.739334
vt 0.640925 0.615537
vt 0.748137 0.677436
vt 0.748137 0.553640
vt 0.748137 0.801232
vt 0.855348 0.615537
vt 0.855348 0.739334
vt 0.798377 0.061898
vt 0.798377 0.185695
vt 0.691166 0.123797
vt 0.691166 0.247593
vt 0.691166 0.000000
vt 0.583954 0.185695
vt 0.583954 0.061898
vt 0.949581 0.775134
vt 0.950224 0.898929
vt 0.859415 0.899401
vt 0.858772 0.775606
vt 0.948937 0.651340
vt 0.858128 0.651812
vt 0.949581 0.527520
vt 0.950225 0.651315
vt 0.859416 0.651786
vt 0.858772 0.527993
vt 0.948937 0.403725
vt 0.858128 0.404198
vt 0.098671 0.421614
vt 0.000000 0.421614
vt 0.000000 0.290051
vt 0.098671 0.290051
vt 0.001185 0.232690
vt 0.099723 0.236204
vt 0.009231 0.170899
vt 0.105809 0.189063
vt 0.030534 0.109001
vt 0.118327 0.151756
vt 0.070122 0.054643
vt 0.135804 0.126130
vt 0.126503 0.017881
vt 0.159267 0.109710
vt 0.188725 0.002371
vt 0.195444 0.100556
vt 0.246680 0.000000
vt 0.246680 0.098672
vt 0.378243 0.000000
vt 0.378243 0.098672
vt 0.135306 0.126839
vt 0.233978 0.126839
vt 0.233978 0.258402
vt 0.135306 0.258402
vt 0.235029 0.312249
vt 0.136491 0.315764
vt 0.241116 0.359390
vt 0.144537 0.377555
vt 0.253634 0.396697
vt 0.165841 0.439452
vt 0.271111 0.422323
vt 0.205429 0.493811
vt 0.294574 0.438743
vt 0.261810 0.530572
vt 0.330750 0.447897
vt 0.324031 0.546082
vt 0.381987 0.449781
vt 0.381987 0.548453
vt 0.513549 0.449781
vt 0.513549 0.548453
vt 0.891967 0.000000
vt 0.891967 0.123797
vt 0.801157 0.123797
vt 0.801157 0.000000
vt 0.202960 0.906341
vt 0.202960 0.782543
vt 0.293770 0.782543
vt 0.293770 0.906341
vt 0.671203 0.759026
vt 0.671203 0.882823
vt 0.580394 0.882823
vt 0.580394 0.759026
vt 0.560821 0.787582
vt 0.560821 0.911379
vt 0.470012 0.911379
vt 0.470012 0.787582
vn 0.000000 0.000000 -1.000000
vn 0.000000 0.000000 -1.000000
vn 0.000000 0.000000 -1.000000
vn 0.000000 0.000000 -1.000000
vn -0.866024 0.000000 -0.500003
vn -0.866024 0.000000 -0.500003
vn -0.866024 0.000000 -0.500003
vn -0.866024 0.000000 -0.500003
vn -0.866024 0.000000 0.500003
vn -0.866024 0.000000 0.500003
vn -0.866024 0.000000 0.500003
vn -0.866024 0.000000 0.500003
vn -0.000000 0.000000 1.000000
vn -0.000000 0.000000 1.000000
vn -0.000000 0.000000 1.000000
vn -0.000000 0.000000 1.000000
vn 0.866027 0.000000 0.499997
vn 0.866027 0.000000 0.499997
vn 0.866027 0.000000 0.499997
vn 0.866027 0.000000 0.499997
vn 0.866027 0.000000 -0.499997
vn 0.866027 0.000000 -0.499997
vn 0.866027 0.000000 -0.499997
vn 0.866027 0.000000 -0.499997
vn 0.000000 0.000000 -1.000000
vn 0.000000 0.000000 -1.000000
vn 0.000000 0.000000 -1.000000
vn 0.000000 0.000000 -1.000000
vn 0.000000 -0.866027 -0.499997
vn 0.000000 -0.866027 -0.499998
vn 0.000000 -0.866027 -0.499998
vn 0.000000 -0.866026 -0.499998
vn -0.000000 -0.866026 0.499998
vn -0.000000 -0.866027 0.499998
vn -0.000000 -0.866027 0.499998
vn -0.000000 -0.866027 0.499997
vn -0.000000 0.000000 1.000000
vn -0.000000 0.000000 1.000000
vn -0.000000 0.000000 1.000000
vn -0.000000 0.000000 1.000000
vn -0.000000 0.866027 0.499997
vn -0.000000 0.866027 0.499997
vn -0.000000 0.866027 0.499997
vn -0.000000 0.866027 0.499997
vn 0.000000 0.866027 -0.499997
vn 0.000000 0.866027 -0.499997
vn 0.000000 0.866027 -0.499997
vn 0.000000 0.866027 -0.499997
vn -0.133097 0.857024 -0.497790
vn -0.132174 0.857099 -0.497908
vn -0.035971 0.865761 -0.499163
vn -0.036906 0.865437 -0.499657
vn -0.133097 0.857024 0.497790
vn -0.035971 0.865761 0.499164
vn -0.132174 0.857099 0.497908
vn -0.036906 0.865437 0.499657
vn -0.000000 0.000000 1.000000
vn 0.000000 0.000000 1.000000
vn -0.000000 0.000000 1.000000
vn 0.000001 0.000000 1.000000
vn 0.098975 -0.860951 0.498966
vn 0.030366 -0.866011 0.499101
vn 0.106939 -0.860074 0.498835
vn 0.031831 -0.865588 0.499743
vn 0.098975 -0.860951 -0.498966
vn 0.106939 -0.860074 -0.498835
vn 0.030366 -0.866011 -0.499102
vn 0.031830 -0.865589 -0.499743
vn 0.000000 0.000000 -1.000000
vn -0.000001 0.000000 -1.000000
vn -0.000001 0.000000 -1.000000
vn -0.000002 0.000000 -1.000000
vn -0.865877 0.018353 -0.499920
vn -0.863616 0.068780 -0.499437
vn -0.865974 0.018051 -0.499764
vn -0.863706 0.068625 -0.499303
vn -0.865877 0.018353 0.499920
vn -0.865974 0.018051 0.499764
vn -0.863616 0.068780 0.499436
vn -0.863706 0.068625 0.499303
vn -0.000000 0.000000 1.000000
vn 0.000000 0.000000 1.000000
vn 0.000000 0.000000 1.000000
vn 0.000000 0.000000 1.000000
vn 0.865904 -0.016896 0.499925
vn 0.866008 -0.016535 0.499758
vn 0.864132 -0.060642 0.499598
vn 0.864333 -0.059115 0.499433
vn 0.865904 -0.016896 -0.499925
vn 0.864132 -0.060642 -0.499598
vn 0.866008 -0.016535 -0.499757
vn 0.864333 -0.059115 -0.499433
vn 0.000000 0.000000 -1.000000
vn -0.000000 0.000000 -1.000000
vn 0.000000 0.000000 -1.000000
vn -0.000000 0.000000 -1.000000
vn -0.842702 0.204540 -0.498013
vn -0.842752 0.205320 -0.497607
vn -0.842702 0.204540 0.498013
vn -0.842752 0.205320 0.497606
vn 0.000001 0.000000 1.000000
vn -0.000000 0.000000 1.000000
vn 0.846544 -0.186981 0.498399
vn 0.848633 -0.179701 0.497524
vn 0.847565 -0.184242 -0.497683
vn 0.849256 -0.174185 -0.498422
vn -0.000000 0.000000 -1.000000
vn 0.000000 0.000000 -1.000000
vn -0.768097 0.405952 -0.495207
vn -0.768748 0.403850 -0.495916
vn -0.768097 0.405952 0.495207
vn -0.768748 0.403849 0.495915
vn 0.000000 0.000000 1.000000
vn -0.000000 0.000000 1.000000
vn 0.785786 -0.372659 0.493626
vn 0.806729 -0.322589 0.495102
vn 0.806912 -0.320091 -0.496422
vn 0.787439 -0.370318 -0.492752
vn 0.000000 0.000000 -1.000000
vn 0.000000 0.000000 -1.000000
vn -0.604602 0.624248 -0.494743
vn -0.600143 0.629970 -0.492917
vn -0.604602 0.624248 0.494743
vn -0.600142 0.629970 0.492917
vn -0.000000 0.000000 1.000000
vn 0.000000 0.000000 1.000000
vn 0.692013 -0.524354 0.496156
vn 0.626241 -0.607022 0.489231
vn 0.692011 -0.524354 -0.496158
vn 0.626240 -0.607022 -0.489231
vn 0.000000 0.000000 -1.000000
vn -0.000000 0.000000 -1.000000
vn -0.360037 0.790697 -0.495149
vn -0.353814 0.794035 -0.494292
vn -0.360037 0.790697 0.495148
vn -0.353814 0.794035 0.494292
vn 0.000000 0.000000 1.000000
vn 0.000000 0.000000 1.000000
vn 0.344030 -0.794340 0.500668
vn 0.342818 -0.798815 0.494337
vn 0.344029 -0.794339 -0.500668
vn 0.342819 -0.798815 -0.494337
vn 0.000000 0.000000 -1.000000
vn -0.000001 0.000000 -1.000000
vn 0.000000 0.000000 -1.000000
vn 0.000000 0.000000 -1.000000
vn 0.000000 0.000000 -1.000000
vn 0.000000 0.000000 -1.000000
vn -0.866027 0.000000 -0.499998
vn -0.866026 0.000000 -0.499998
vn -0.866026 0.000000 -0.499998
vn -0.866026 0.000000 -0.499999
vn -0.866027 0.000000 0.499998
vn -0.866026 0.000000 0.499999
vn -0.866026 0.000000 0.499998
vn -0.866026 0.000000 0.499999
vn -0.000000 0.000000 1.000000
vn -0.000000 0.000000 1.000000
vn -0.000000 0.000000 1.000000
vn -0.000000 0.000000 1.000000
vn 0.866028 0.000000 0.499995
vn 0.866028 0.000000 0.499996
vn 0.866028 0.000000 0.499996
vn 0.866027 0.000000 0.499997
vn 0.866028 0.000000 -0.499995
vn 0.866028 0.000000 -0.499996
vn 0.866028 0.000000 -0.499996
vn 0.866027 0.000000 -0.499997
vn -0.000000 -1.000000 0.000000
vn -0.000000 -1.000000 0.000000
vn 0.000000 -1.000000 0.000000
vn 0.000000 -1.000000 0.000000
vn 0.000000 -1.000000 -0.000000
vn 0.000000 -1.000000 -0.000000
vn 0.000000 -1.000000 0.000000
vn -0.000000 1.000000 0.000000
vn 0.000000 1.000000 -0.000000
vn -0.000000 1.000000 0.000000
vn 0.000000 1.000000 0.000000
vn -0.000000 1.000000 0.000000
vn 0.000000 1.000000 -0.000000
vn -0.000000 1.000000 0.000000
vn 0.000000 0.000000 -1.000000
vn 0.000000 0.000000 -1.000000
vn 0.000000 0.000000 -1.000000
vn 0.000000 0.000000 -1.000000
vn 0.000000 -0.866026 -0.499999
vn 0.000000 -0.866025 -0.500001
vn 0.000000 -0.866025 -0.500000
vn 0.000000 -0.866024 -0.500002
vn -0.000000 -0.866025 0.500001
vn -0.000000 -0.866026 0.500000
vn -0.000000 -0.866026 0.500000
vn -0.000000 -0.866026 0.499999
vn -0.000000 0.000000 1.000000
vn -0.000000 0.000000 1.000000
vn -0.000000 0.000000 1.000000
vn -0.000000 0.000000 1.000000
vn -0.000000 0.866025 0.500001
vn -0.000000 0.866025 0.500001
vn -0.000000 0.866025 0.500001
vn -0.000000 0.866025 0.500001
vn 0.000000 0.866026 -0.499999
vn 0.000000 0.866026 -0.500000
vn 0.000000 0.866026 -0.500000
vn 0.000000 0.866025 -0.500001
vn 1.000000 0.000000 0.000000
vn 1.000000 0.000000 0.000000
vn 1.000000 0.000000 0.000000
vn 1.000000 0.000000 0.000000
vn 1.000000 0.000000 0.000000
vn 1.000000 0.000000 0.000000
vn 1.000000 0.000000 0.000000
vn -1.000000 0.000000 -0.000000
vn -1.000000 0.000000 -0.000000
vn -1.000000 0.000000 -0.000000
vn -1.000000 0.000000 -0.000000
vn -1.000000 0.000000 -0.000000
vn -1.000000 0.000000 -0.000000
vn -1.000000 0.000000 -0.000000
s 1
g Tr_BendPipe
usemtl initialShadingGroup
f 1/119/1 2/120/2 7/122/3
f 7/122/3 2/120/2 8/121/4
s 2
f 2/26/5 3/27/6 8/22/7
f 8/22/7 3/27/6 9/23/8
s 3
f 3/27/9 4/32/10 9/23/11
f 9/23/11 4/32/10 10/28/12
s 4
f 4/139/13 5/140/14 10/142/15
f 10/142/15 5/140/14 11/141/16
s 5
f 5/1/17 6/2/18 11/4/19
f 11/4/19 6/2/18 12/3/20
s 6
f 6/2/21 1/5/22 12/3/23
f 12/3/23 1/5/22 7/6/24
s 7
f 13/137/25 14/138/26 19/135/27
f 19/135/27 14/138/26 20/136/28
s 8
f 14/66/29 15/67/30 20/69/31
f 20/69/31 15/67/30 21/68/32
s 9
f 15/67/33 16/70/34 21/68/35
f 21/68/35 16/70/34 22/71/36
s 10
f 16/157/37 17/158/38 22/155/39
f 22/155/39 17/158/38 23/156/40
s 11
f 17/78/41 18/79/42 23/81/43
f 23/81/43 18/79/42 24/80/44
s 12
f 18/79/45 13/82/46 24/80/47
f 24/80/47 13/82/46 19/83/48
s 13
f 55/86/49 56/84/50 19/83/51
f 19/83/51 56/84/50 24/80/52
s 14
f 57/85/53 23/81/54 56/84/55
f 56/84/55 23/81/54 24/80/56
s 15
f 58/153/57 22/155/58 57/154/59
f 57/154/59 22/155/58 23/156/60
s 16
f 59/72/61 21/68/62 58/74/63
f 58/74/63 21/68/62 22/71/64
s 17
f 59/72/65 60/73/66 21/68/67
f 21/68/67 60/73/66 20/69/68
s 18
f 60/134/69 55/133/70 20/136/71
f 20/136/71 55/133/70 19/135/72
s 13
f 9/23/73 26/24/74 8/22/75
f 8/22/75 26/24/74 25/25/76
s 14
f 9/23/77 10/28/78 26/24/79
f 26/24/79 10/28/78 27/29/80
s 15
f 10/142/81 11/141/82 27/144/83
f 27/144/83 11/141/82 28/143/84
s 16
f 11/4/85 12/3/86 28/8/87
f 28/8/87 12/3/86 29/7/88
s 17
f 7/6/89 30/9/90 12/3/91
f 12/3/91 30/9/90 29/7/92
s 18
f 8/121/93 25/123/94 7/122/95
f 7/122/95 25/123/94 30/124/96
s 13
f 26/24/74 32/30/97 25/25/76
f 25/25/76 32/30/97 31/31/98
s 14
f 26/24/79 27/29/80 32/30/99
f 32/30/99 27/29/80 33/33/100
s 15
f 27/144/83 28/143/84 33/146/101
f 33/146/101 28/143/84 34/145/102
s 16
f 28/8/87 29/7/88 34/11/103
f 34/11/103 29/7/88 35/10/104
s 17
f 30/9/90 36/12/105 29/7/92
f 29/7/92 36/12/105 35/10/106
s 18
f 25/123/94 31/125/107 30/124/96
f 30/124/96 31/125/107 36/126/108
s 13
f 32/30/97 38/34/109 31/31/98
f 31/31/98 38/34/109 37/35/110
s 14
f 32/30/99 33/33/100 38/34/111
f 38/34/111 33/33/100 39/36/112
s 15
f 33/146/101 34/145/102 39/148/113
f 39/148/113 34/145/102 40/147/114
s 16
f 34/11/103 35/10/104 40/14/115
f 40/14/115 35/10/104 41/13/116
s 17
f 35/10/106 36/12/105 41/13/117
f 41/13/117 36/12/105 42/15/118
s 18
f 31/125/107 37/127/119 36/126/108
f 36/126/108 37/127/119 42/128/120
s 13
f 37/35/110 38/34/109 43/38/121
f 43/38/121 38/34/109 44/37/122
s 14
f 39/36/112 45/39/123 38/34/111
f 38/34/111 45/39/123 44/37/124
s 15
f 40/147/114 46/149/125 39/148/113
f 39/148/113 46/149/125 45/150/126
s 16
f 41/13/116 47/16/127 40/14/115
f 40/14/115 47/16/127 46/17/128
s 17
f 41/13/117 42/15/118 47/16/129
f 47/16/129 42/15/118 48/18/130
s 18
f 42/128/120 37/127/119 48/130/131
f 48/130/131 37/127/119 43/129/132
s 13
f 43/92/121 44/90/122 49/89/133
f 49/89/133 44/90/122 50/87/134
s 14
f 45/91/123 51/88/135 44/90/124
f 44/90/124 51/88/135 50/87/136
s 15
f 46/149/125 52/151/137 45/150/126
f 45/150/126 52/151/137 51/152/138
s 16
f 47/16/127 53/19/139 46/17/128
f 46/17/128 53/19/139 52/20/140
s 17
f 47/16/129 48/18/130 53/19/141
f 53/19/141 48/18/130 54/21/142
s 18
f 48/130/131 43/129/132 54/132/143
f 54/132/143 43/129/132 49/131/144
s 13
f 49/89/133 50/87/134 55/86/49
f 55/86/49 50/87/134 56/84/50
s 14
f 51/88/135 57/85/53 50/87/136
f 50/87/136 57/85/53 56/84/55
s 15
f 52/151/137 58/153/57 51/152/138
f 51/152/138 58/153/57 57/154/59
s 16
f 53/75/139 59/72/61 52/77/140
f 52/77/140 59/72/61 58/74/63
s 17
f 53/75/141 54/76/142 59/72/65
f 59/72/65 54/76/142 60/73/66
s 18
f 54/132/143 49/131/144 60/134/69
f 60/134/69 49/131/144 55/133/70
s 25
f 61/159/145 62/160/146 67/162/147
f 67/162/147 62/160/146 68/161/148
s 26
f 62/40/149 63/41/150 68/43/151
f 68/43/151 63/41/150 69/42/152
s 27
f 63/41/153 64/44/154 69/42/155
f 69/42/155 64/44/154 70/45/156
s 28
f 64/163/157 65/164/158 70/166/159
f 70/166/159 65/164/158 71/165/160
s 29
f 65/46/161 66/47/162 71/49/163
f 71/49/163 66/47/162 72/48/164
s 30
f 66/47/165 61/50/166 72/48/167
f 72/48/167 61/50/166 67/51/168
s 31
f 62/93/169 61/94/170 73/95/171
f 63/97/172 62/93/169 73/95/171
f 64/99/173 63/97/172 73/95/171
f 65/98/174 64/99/173 73/95/171
f 66/96/175 65/98/174 73/95/171
f 61/94/170 66/96/175 73/95/171
s 32
f 67/100/176 68/101/177 74/102/178
f 68/101/177 69/103/179 74/102/178
f 69/103/179 70/105/180 74/102/178
f 70/105/180 71/106/181 74/102/178
f 71/106/181 72/104/182 74/102/178
f 72/104/182 67/100/176 74/102/178
s 33
f 75/167/183 76/168/184 81/170/185
f 81/170/185 76/168/184 82/169/186
s 34
f 76/111/187 77/107/188 82/112/189
f 82/112/189 77/107/188 83/110/190
s 35
f 77/107/191 78/108/192 83/110/193
f 83/110/193 78/108/192 84/109/194
s 36
f 78/171/195 79/172/196 84/174/197
f 84/174/197 79/172/196 85/173/198
s 37
f 79/117/199 80/113/200 85/118/201
f 85/118/201 80/113/200 86/116/202
s 38
f 80/113/203 75/114/204 86/116/205
f 86/116/205 75/114/204 81/115/206
s 39
f 76/52/207 75/53/208 87/54/209
f 77/56/210 76/52/207 87/54/209
f 78/58/211 77/56/210 87/54/209
f 79/57/212 78/58/211 87/54/209
f 80/55/213 79/57/212 87/54/209
f 75/53/208 80/55/213 87/54/209
s 40
f 81/59/214 82/60/215 88/61/216
f 82/60/215 83/62/217 88/61/216
f 83/62/217 84/64/218 88/61/216
f 84/64/218 85/65/219 88/61/216
f 85/65/219 86/63/220 88/61/216
f 86/63/220 81/59/214 88/61/216
