# This file uses meters as units for non-parametric coordinates.

mtllib Tr_HorizontalPipe.mtl
g default
v 100.000000 45.000061 -25.980759
v 100.000000 15.000000 -25.980743
v 100.000000 0.000000 -0.000000
v 99.999969 15.000000 25.980774
v 100.000000 45.000000 25.980774
v 100.000000 60.000000 0.000015
v -100.000011 45.000031 -25.980759
v -100.000015 15.000031 -25.980743
v -100.000000 0.000031 -0.000000
v -100.000008 15.000000 25.980774
v -100.000011 45.000031 25.980774
v -100.000015 60.000031 0.000015
vt 0.004361 0.000000
vt 0.153772 0.000653
vt 0.149412 0.996729
vt 0.000000 0.996075
vt 0.303183 0.001308
vt 0.298823 0.997383
vt 0.452599 0.001962
vt 0.602014 0.002618
vt 0.597640 0.998692
vt 0.448232 0.998036
vt 0.751416 0.003274
vt 0.747059 0.999348
vt 0.900821 0.003926
vt 0.896479 1.000000
vn 0.000000 -0.000001 -1.000000
vn 0.000000 -0.000001 -1.000000
vn 0.000000 -0.000001 -1.000000
vn 0.000000 -0.000001 -1.000000
vn -0.000000 -0.866026 -0.499999
vn -0.000000 -0.866026 -0.499999
vn -0.000000 -0.866026 -0.500000
vn -0.000000 -0.866025 -0.500000
vn -0.000000 -0.866026 0.500000
vn -0.000000 -0.866026 0.500000
vn -0.000000 -0.866025 0.500000
vn 0.000000 -0.866025 0.500000
vn 0.000000 0.000000 1.000000
vn 0.000000 0.000000 1.000000
vn 0.000000 0.000000 1.000000
vn 0.000000 0.000000 1.000000
vn 0.000000 0.866025 0.500000
vn 0.000000 0.866025 0.500000
vn 0.000000 0.866026 0.500000
vn 0.000000 0.866026 0.500000
vn 0.000000 0.866027 -0.499998
vn 0.000000 0.866027 -0.499998
vn -0.000000 0.866026 -0.499999
vn -0.000000 0.866026 -0.499999
s 1
g Tr_HorizontalPipe
usemtl initialShadingGroup
f 1/11/1 2/13/2 7/12/3
f 7/12/3 2/13/2 8/14/4
s 2
f 2/1/5 3/2/6 8/4/7
f 8/4/7 3/2/6 9/3/8
s 3
f 3/2/9 4/5/10 9/3/11
f 9/3/11 4/5/10 10/6/12
s 4
f 4/5/13 5/7/14 10/6/15
f 10/6/15 5/7/14 11/10/16
s 5
f 5/7/17 6/8/18 11/10/19
f 11/10/19 6/8/18 12/9/20
s 6
f 6/8/21 1/11/22 12/9/23
f 12/9/23 1/11/22 7/12/24
